<?xml version="1.0" encoding="UTF-8" standalone="no"?>
<!-- Created with Inkscape (http://www.inkscape.org/) -->

<svg
   version="1.1"
   id="svg2"
   width="443.33063"
   height="251.35866"
   viewBox="0 0 443.33063 251.35866"
   sodipodi:docname="axcelya 2.ai"
   xmlns:inkscape="http://www.inkscape.org/namespaces/inkscape"
   xmlns:sodipodi="http://sodipodi.sourceforge.net/DTD/sodipodi-0.dtd"
   xmlns="http://www.w3.org/2000/svg"
   xmlns:svg="http://www.w3.org/2000/svg">
  <defs
     id="defs6">
    <clipPath
       clipPathUnits="userSpaceOnUse"
       id="clipPath18">
      <path
         d="m 199.603,212.112 c -0.825,0 -1.546,-0.2 -2.165,-0.598 v 0 c -0.618,-0.4 -1.25,-1.179 -1.893,-2.34 v 0 l -12.677,-23.226 c -0.129,-0.258 -0.161,-0.471 -0.097,-0.638 v 0 c 0.065,-0.167 0.265,-0.251 0.599,-0.251 v 0 h 5.025 c 0.412,0 0.709,0.166 0.888,0.502 v 0 l 2.667,4.986 h 18.165 l 2.744,-4.986 c 0.154,-0.336 0.45,-0.502 0.888,-0.502 v 0 h 4.909 c 0.309,0 0.496,0.084 0.561,0.251 v 0 c 0.064,0.167 0.032,0.38 -0.097,0.638 v 0 l -12.793,23.226 c -0.644,1.161 -1.301,1.94 -1.97,2.34 v 0 c -0.671,0.398 -1.495,0.598 -2.474,0.598 v 0 z m 0.849,-5.759 c 0.103,0.181 0.245,0.271 0.426,0.271 v 0 h 0.231 c 0.18,0 0.323,-0.09 0.426,-0.271 v 0 l 6.145,-11.323 h -13.295 z"
         id="path16" />
    </clipPath>
    <linearGradient
       x1="0"
       y1="0"
       x2="1"
       y2="0"
       gradientUnits="userSpaceOnUse"
       gradientTransform="matrix(343.4624,-10.011236,-10.011236,-343.4624,186.80801,198.75613)"
       spreadMethod="pad"
       id="linearGradient28">
      <stop
         style="stop-opacity:1;stop-color:#00aeef"
         offset="0"
         id="stop24" />
      <stop
         style="stop-opacity:1;stop-color:#262261"
         offset="1"
         id="stop26" />
    </linearGradient>
    <clipPath
       clipPathUnits="userSpaceOnUse"
       id="clipPath38">
      <path
         d="m 231.371,206.276 c -1.752,0 -3.215,-0.148 -4.387,-0.444 v 0 c -1.172,-0.296 -2.113,-0.76 -2.821,-1.391 v 0 c -0.709,-0.632 -1.217,-1.443 -1.526,-2.435 v 0 c -0.31,-0.992 -0.465,-2.184 -0.465,-3.575 v 0 -12.522 c 0,-0.568 0.296,-0.85 0.889,-0.85 v 0 h 3.788 c 0.567,0 0.851,0.282 0.851,0.85 v 0 11.478 c 0,0.799 0.063,1.475 0.193,2.03 v 0 c 0.128,0.554 0.353,0.991 0.675,1.314 v 0 c 0.323,0.322 0.755,0.553 1.296,0.695 v 0 c 0.54,0.141 1.224,0.214 2.048,0.214 v 0 h 10.281 c 0.463,0 0.694,0.23 0.694,0.694 v 0 3.247 c 0,0.463 -0.231,0.695 -0.694,0.695 v 0 z"
         id="path36" />
    </clipPath>
    <linearGradient
       x1="0"
       y1="0"
       x2="1"
       y2="0"
       gradientUnits="userSpaceOnUse"
       gradientTransform="matrix(343.4624,-10.011236,-10.011236,-343.4624,186.75697,197.00462)"
       spreadMethod="pad"
       id="linearGradient48">
      <stop
         style="stop-opacity:1;stop-color:#00aeef"
         offset="0"
         id="stop44" />
      <stop
         style="stop-opacity:1;stop-color:#262261"
         offset="1"
         id="stop46" />
    </linearGradient>
    <clipPath
       clipPathUnits="userSpaceOnUse"
       id="clipPath58">
      <path
         d="m 254.25,206.276 c -1.752,0 -3.215,-0.148 -4.387,-0.444 v 0 c -1.172,-0.296 -2.113,-0.76 -2.821,-1.391 v 0 c -0.709,-0.632 -1.217,-1.443 -1.526,-2.435 v 0 c -0.31,-0.992 -0.465,-2.184 -0.465,-3.575 v 0 -5.565 c 0,-1.392 0.155,-2.584 0.465,-3.576 v 0 c 0.309,-0.991 0.817,-1.803 1.526,-2.434 v 0 c 0.708,-0.632 1.649,-1.089 2.821,-1.372 v 0 c 1.172,-0.284 2.635,-0.425 4.387,-0.425 v 0 h 15.536 c 0.464,0 0.696,0.232 0.696,0.696 v 0 3.247 c 0,0.463 -0.232,0.695 -0.696,0.695 v 0 h -14.995 c -0.851,0 -1.545,0.071 -2.087,0.213 v 0 c -0.541,0.14 -0.967,0.372 -1.276,0.695 v 0 c -0.308,0.322 -0.528,0.753 -0.657,1.295 v 0 c -0.129,0.541 -0.192,1.223 -0.192,2.048 v 0 3.439 c 0,0.799 0.063,1.475 0.192,2.03 v 0 c 0.129,0.554 0.349,0.991 0.657,1.314 v 0 c 0.309,0.322 0.735,0.553 1.276,0.695 v 0 c 0.542,0.141 1.236,0.214 2.087,0.214 v 0 h 14.995 c 0.464,0 0.696,0.23 0.696,0.694 v 0 3.247 c 0,0.463 -0.232,0.695 -0.696,0.695 v 0 z"
         id="path56" />
    </clipPath>
    <linearGradient
       x1="0"
       y1="0"
       x2="1"
       y2="0"
       gradientUnits="userSpaceOnUse"
       gradientTransform="matrix(343.4624,-10.011236,-10.011236,-343.4624,186.78174,197.85443)"
       spreadMethod="pad"
       id="linearGradient68">
      <stop
         style="stop-opacity:1;stop-color:#00aeef"
         offset="0"
         id="stop64" />
      <stop
         style="stop-opacity:1;stop-color:#262261"
         offset="1"
         id="stop66" />
    </linearGradient>
    <clipPath
       clipPathUnits="userSpaceOnUse"
       id="clipPath78">
      <path
         d="m 275.043,214.044 c -0.568,0 -0.851,-0.282 -0.851,-0.85 v 0 -27.285 c 0,-0.568 0.283,-0.85 0.851,-0.85 v 0 h 3.787 c 0.566,0 0.85,0.282 0.85,0.85 v 0 15.46 h 14.183 c 0.825,0 1.494,-0.071 2.01,-0.214 v 0 c 0.516,-0.141 0.922,-0.373 1.218,-0.694 v 0 c 0.296,-0.324 0.496,-0.761 0.599,-1.315 v 0 c 0.103,-0.555 0.154,-1.231 0.154,-2.029 v 0 -11.208 c 0,-0.568 0.284,-0.85 0.851,-0.85 v 0 h 3.787 c 0.567,0 0.85,0.282 0.85,0.85 v 0 12.522 c 0,1.391 -0.154,2.583 -0.463,3.575 v 0 c -0.31,0.992 -0.818,1.803 -1.527,2.435 v 0 c -0.709,0.631 -1.656,1.095 -2.84,1.391 v 0 c -1.186,0.296 -2.641,0.444 -4.368,0.444 v 0 H 279.68 v 6.918 c 0,0.568 -0.284,0.85 -0.85,0.85 v 0 z"
         id="path76" />
    </clipPath>
    <linearGradient
       x1="0"
       y1="0"
       x2="1"
       y2="0"
       gradientUnits="userSpaceOnUse"
       gradientTransform="matrix(343.4624,-10.011236,-10.011236,-343.4624,186.9077,202.1758)"
       spreadMethod="pad"
       id="linearGradient88">
      <stop
         style="stop-opacity:1;stop-color:#00aeef"
         offset="0"
         id="stop84" />
      <stop
         style="stop-opacity:1;stop-color:#262261"
         offset="1"
         id="stop86" />
    </linearGradient>
    <clipPath
       clipPathUnits="userSpaceOnUse"
       id="clipPath98">
      <path
         d="m 308.588,206.276 c -0.463,0 -0.695,-0.232 -0.695,-0.695 v 0 -3.247 c 0,-0.464 0.232,-0.694 0.695,-0.694 v 0 h 16.155 c 0.85,0 1.546,-0.066 2.088,-0.195 v 0 c 0.54,-0.129 0.965,-0.328 1.275,-0.599 v 0 c 0.308,-0.27 0.527,-0.625 0.657,-1.062 v 0 c 0.128,-0.438 0.192,-0.966 0.192,-1.585 v 0 -0.734 h -15.729 c -1.134,0 -2.081,-0.11 -2.84,-0.329 v 0 c -0.761,-0.219 -1.373,-0.547 -1.836,-0.985 v 0 c -0.465,-0.439 -0.792,-0.973 -0.986,-1.604 v 0 c -0.193,-0.632 -0.29,-1.347 -0.29,-2.146 v 0 -1.854 c 0,-0.953 0.097,-1.778 0.29,-2.474 v 0 c 0.194,-0.695 0.521,-1.263 0.986,-1.7 v 0 c 0.463,-0.438 1.075,-0.767 1.836,-0.986 v 0 c 0.759,-0.219 1.706,-0.328 2.84,-0.328 v 0 h 18.396 c 0.567,0 1.031,0.045 1.391,0.135 v 0 c 0.361,0.091 0.651,0.252 0.871,0.483 v 0 c 0.218,0.232 0.372,0.547 0.463,0.948 v 0 c 0.09,0.398 0.135,0.908 0.135,1.525 v 0 10.281 c 0,1.391 -0.154,2.583 -0.463,3.575 v 0 c -0.31,0.992 -0.818,1.803 -1.527,2.435 v 0 c -0.709,0.631 -1.656,1.095 -2.84,1.391 v 0 c -1.186,0.296 -2.642,0.444 -4.368,0.444 v 0 z m 4.542,-16.483 c -0.323,0.322 -0.484,0.831 -0.484,1.526 v 0 0.813 c 0,0.618 0.161,1.087 0.484,1.41 v 0 c 0.321,0.322 0.882,0.483 1.681,0.483 v 0 h 14.144 v -3.401 c 0,-0.49 -0.083,-0.831 -0.251,-1.024 v 0 c -0.167,-0.193 -0.458,-0.289 -0.869,-0.289 v 0 h -13.024 c -0.799,0 -1.36,0.16 -1.681,0.482"
         id="path96" />
    </clipPath>
    <linearGradient
       x1="0"
       y1="0"
       x2="1"
       y2="0"
       gradientUnits="userSpaceOnUse"
       gradientTransform="matrix(343.4624,-10.011236,-10.011236,-343.4624,186.83058,199.53011)"
       spreadMethod="pad"
       id="linearGradient108">
      <stop
         style="stop-opacity:1;stop-color:#00aeef"
         offset="0"
         id="stop104" />
      <stop
         style="stop-opacity:1;stop-color:#262261"
         offset="1"
         id="stop106" />
    </linearGradient>
    <clipPath
       clipPathUnits="userSpaceOnUse"
       id="clipPath118">
      <path
         d="m 346.965,206.276 c -1.752,0 -3.215,-0.148 -4.386,-0.444 v 0 c -1.173,-0.296 -2.114,-0.76 -2.822,-1.391 v 0 c -0.709,-0.632 -1.217,-1.443 -1.526,-2.435 v 0 c -0.31,-0.992 -0.464,-2.184 -0.464,-3.575 v 0 -5.565 c 0,-1.392 0.154,-2.584 0.464,-3.576 v 0 c 0.309,-0.991 0.817,-1.803 1.526,-2.434 v 0 c 0.708,-0.632 1.649,-1.089 2.822,-1.372 v 0 c 1.171,-0.284 2.634,-0.425 4.386,-0.425 v 0 h 16.659 c 0.463,0 0.695,0.232 0.695,0.696 v 0 3.247 c 0,0.463 -0.232,0.695 -0.695,0.695 v 0 h -16.117 c -1.676,0 -2.803,0.27 -3.382,0.811 v 0 c -0.58,0.54 -0.87,1.417 -0.87,2.627 v 0 0.929 h 19.519 c 0.746,0 1.299,0.161 1.66,0.483 v 0 c 0.361,0.322 0.541,0.894 0.541,1.719 v 0 3.672 c 0,1.16 -0.103,2.145 -0.308,2.957 v 0 c -0.206,0.812 -0.56,1.468 -1.063,1.97 v 0 c -0.504,0.503 -1.185,0.863 -2.049,1.084 v 0 c -0.864,0.217 -1.952,0.327 -3.264,0.327 v 0 z m -3.71,-7.729 c 0,1.237 0.29,2.119 0.87,2.648 v 0 c 0.579,0.527 1.706,0.792 3.382,0.792 v 0 h 9.7 c 0.903,0 1.521,-0.168 1.855,-0.502 v 0 c 0.336,-0.335 0.503,-0.903 0.503,-1.701 v 0 -1.624 c 0,-0.437 -0.218,-0.657 -0.657,-0.657 v 0 h -15.653 z"
         id="path116" />
    </clipPath>
    <linearGradient
       x1="0"
       y1="0"
       x2="1"
       y2="0"
       gradientUnits="userSpaceOnUse"
       gradientTransform="matrix(343.4624,-10.011236,-10.011236,-343.4624,186.85878,200.4977)"
       spreadMethod="pad"
       id="linearGradient128">
      <stop
         style="stop-opacity:1;stop-color:#00aeef"
         offset="0"
         id="stop124" />
      <stop
         style="stop-opacity:1;stop-color:#262261"
         offset="1"
         id="stop126" />
    </linearGradient>
    <clipPath
       clipPathUnits="userSpaceOnUse"
       id="clipPath138">
      <path
         d="m 377.96,206.276 c -1.751,0 -3.214,-0.148 -4.386,-0.444 v 0 c -1.173,-0.296 -2.113,-0.76 -2.822,-1.391 v 0 c -0.708,-0.632 -1.217,-1.443 -1.526,-2.435 v 0 c -0.309,-0.992 -0.464,-2.184 -0.464,-3.575 v 0 -5.565 c 0,-1.392 0.155,-2.584 0.464,-3.576 v 0 c 0.309,-0.991 0.818,-1.803 1.526,-2.434 v 0 c 0.709,-0.632 1.649,-1.089 2.822,-1.372 v 0 c 1.172,-0.284 2.635,-0.425 4.386,-0.425 v 0 h 10.938 c 1.726,0 3.182,0.141 4.367,0.425 v 0 c 1.184,0.283 2.132,0.74 2.84,1.372 v 0 c 0.709,0.631 1.218,1.443 1.527,2.434 v 0 c 0.31,0.992 0.465,2.184 0.465,3.576 v 0 5.565 c 0,1.391 -0.155,2.583 -0.465,3.575 v 0 c -0.309,0.992 -0.818,1.803 -1.527,2.435 v 0 c -0.708,0.631 -1.656,1.095 -2.84,1.391 v 0 c -1.185,0.296 -2.641,0.444 -4.367,0.444 v 0 z m -1.506,-16.483 c -0.542,0.141 -0.974,0.373 -1.295,0.697 v 0 c -0.323,0.321 -0.548,0.753 -0.676,1.293 v 0 c -0.13,0.542 -0.195,1.224 -0.195,2.049 v 0 3.671 c 0,0.798 0.065,1.469 0.195,2.01 v 0 c 0.128,0.541 0.353,0.979 0.676,1.314 v 0 c 0.321,0.335 0.753,0.566 1.295,0.696 v 0 c 0.54,0.128 1.222,0.193 2.048,0.193 v 0 h 9.855 c 0.851,0 1.545,-0.065 2.086,-0.193 v 0 c 0.542,-0.13 0.973,-0.361 1.295,-0.696 v 0 c 0.323,-0.335 0.548,-0.773 0.676,-1.314 v 0 c 0.129,-0.541 0.195,-1.212 0.195,-2.01 v 0 -3.671 c 0,-0.825 -0.066,-1.507 -0.195,-2.049 v 0 c -0.128,-0.54 -0.353,-0.972 -0.676,-1.293 v 0 c -0.322,-0.324 -0.753,-0.556 -1.295,-0.697 v 0 c -0.541,-0.142 -1.235,-0.213 -2.086,-0.213 v 0 h -9.855 c -0.826,0 -1.508,0.071 -2.048,0.213"
         id="path136" />
    </clipPath>
    <linearGradient
       x1="0"
       y1="0"
       x2="1"
       y2="0"
       gradientUnits="userSpaceOnUse"
       gradientTransform="matrix(343.4624,-10.011236,-10.011236,-343.4624,186.88496,201.3961)"
       spreadMethod="pad"
       id="linearGradient148">
      <stop
         style="stop-opacity:1;stop-color:#00aeef"
         offset="0"
         id="stop144" />
      <stop
         style="stop-opacity:1;stop-color:#262261"
         offset="1"
         id="stop146" />
    </linearGradient>
    <clipPath
       clipPathUnits="userSpaceOnUse"
       id="clipPath158">
      <path
         d="m 403.546,214.044 c -0.567,0 -0.85,-0.282 -0.85,-0.85 v 0 -27.285 c 0,-0.568 0.283,-0.85 0.85,-0.85 v 0 h 3.788 c 0.566,0 0.85,0.282 0.85,0.85 v 0 27.285 c 0,0.568 -0.284,0.85 -0.85,0.85 v 0 z"
         id="path156" />
    </clipPath>
    <linearGradient
       x1="0"
       y1="0"
       x2="1"
       y2="0"
       gradientUnits="userSpaceOnUse"
       gradientTransform="matrix(343.4624,-10.011236,-10.011236,-343.4624,187.01678,205.91823)"
       spreadMethod="pad"
       id="linearGradient168">
      <stop
         style="stop-opacity:1;stop-color:#00aeef"
         offset="0"
         id="stop164" />
      <stop
         style="stop-opacity:1;stop-color:#262261"
         offset="1"
         id="stop166" />
    </linearGradient>
    <clipPath
       clipPathUnits="userSpaceOnUse"
       id="clipPath178">
      <path
         d="m 421.942,206.276 c -1.752,0 -3.214,-0.148 -4.387,-0.444 v 0 c -1.173,-0.296 -2.113,-0.76 -2.822,-1.391 v 0 c -0.708,-0.632 -1.217,-1.443 -1.526,-2.435 v 0 c -0.309,-0.992 -0.463,-2.184 -0.463,-3.575 v 0 -5.565 c 0,-1.392 0.154,-2.584 0.463,-3.576 v 0 c 0.309,-0.991 0.818,-1.803 1.526,-2.434 v 0 c 0.709,-0.632 1.649,-1.089 2.822,-1.372 v 0 c 1.173,-0.284 2.635,-0.425 4.387,-0.425 v 0 h 10.937 c 1.726,0 3.182,0.141 4.367,0.425 v 0 c 1.184,0.283 2.132,0.74 2.84,1.372 v 0 c 0.709,0.631 1.218,1.443 1.527,2.434 v 0 c 0.31,0.992 0.465,2.184 0.465,3.576 v 0 5.565 c 0,1.391 -0.155,2.583 -0.465,3.575 v 0 c -0.309,0.992 -0.818,1.803 -1.527,2.435 v 0 c -0.708,0.631 -1.656,1.095 -2.84,1.391 v 0 c -1.185,0.296 -2.641,0.444 -4.367,0.444 v 0 z m -1.507,-16.483 c -0.542,0.141 -0.974,0.373 -1.295,0.697 v 0 c -0.323,0.321 -0.547,0.753 -0.676,1.293 v 0 c -0.13,0.542 -0.194,1.224 -0.194,2.049 v 0 3.671 c 0,0.798 0.064,1.469 0.194,2.01 v 0 c 0.129,0.541 0.353,0.979 0.676,1.314 v 0 c 0.321,0.335 0.753,0.566 1.295,0.696 v 0 c 0.54,0.128 1.222,0.193 2.048,0.193 v 0 h 9.855 c 0.851,0 1.546,-0.065 2.087,-0.193 v 0 c 0.541,-0.13 0.972,-0.361 1.295,-0.696 v 0 c 0.322,-0.335 0.547,-0.773 0.676,-1.314 v 0 c 0.128,-0.541 0.194,-1.212 0.194,-2.01 v 0 -3.671 c 0,-0.825 -0.066,-1.507 -0.194,-2.049 v 0 c -0.129,-0.54 -0.354,-0.972 -0.676,-1.293 v 0 c -0.323,-0.324 -0.754,-0.556 -1.295,-0.697 v 0 c -0.541,-0.142 -1.236,-0.213 -2.087,-0.213 v 0 h -9.855 c -0.826,0 -1.508,0.071 -2.048,0.213"
         id="path176" />
    </clipPath>
    <linearGradient
       x1="0"
       y1="0"
       x2="1"
       y2="0"
       gradientUnits="userSpaceOnUse"
       gradientTransform="matrix(343.4624,-10.011236,-10.011236,-343.4624,186.9223,202.67697)"
       spreadMethod="pad"
       id="linearGradient188">
      <stop
         style="stop-opacity:1;stop-color:#00aeef"
         offset="0"
         id="stop184" />
      <stop
         style="stop-opacity:1;stop-color:#262261"
         offset="1"
         id="stop186" />
    </linearGradient>
    <clipPath
       clipPathUnits="userSpaceOnUse"
       id="clipPath198">
      <path
         d="m 455.488,206.276 c -1.751,0 -3.214,-0.148 -4.386,-0.444 v 0 c -1.173,-0.296 -2.114,-0.76 -2.822,-1.391 v 0 c -0.708,-0.632 -1.218,-1.443 -1.526,-2.435 v 0 c -0.31,-0.992 -0.464,-2.197 -0.464,-3.614 v 0 -4.059 c 0,-1.416 0.154,-2.621 0.464,-3.612 v 0 c 0.308,-0.992 0.818,-1.804 1.526,-2.435 v 0 c 0.708,-0.632 1.649,-1.095 2.822,-1.392 v 0 c 1.172,-0.295 2.635,-0.445 4.386,-0.445 v 0 h 14.533 v -1.003 c 0,-0.825 -0.065,-1.514 -0.194,-2.068 v 0 c -0.13,-0.554 -0.356,-0.991 -0.677,-1.314 v 0 c -0.322,-0.322 -0.753,-0.554 -1.295,-0.696 v 0 c -0.54,-0.141 -1.237,-0.212 -2.087,-0.212 v 0 h -17.662 c -0.463,0 -0.694,-0.233 -0.694,-0.696 v 0 -3.247 c 0,-0.464 0.231,-0.696 0.694,-0.696 v 0 h 18.204 c 1.752,0 3.214,0.149 4.385,0.445 v 0 c 1.173,0.297 2.12,0.76 2.843,1.392 v 0 c 0.721,0.632 1.229,1.443 1.525,2.433 v 0 c 0.296,0.993 0.445,2.198 0.445,3.615 v 0 14.067 c 0,1.392 -0.149,2.584 -0.445,3.575 v 0 c -0.296,0.991 -0.804,1.797 -1.525,2.416 v 0 c -0.723,0.618 -1.67,1.076 -2.843,1.372 v 0 c -1.171,0.296 -2.633,0.444 -4.385,0.444 v 0 z m -1.506,-15.342 c -0.542,0.129 -0.974,0.34 -1.296,0.637 v 0 c -0.323,0.296 -0.547,0.67 -0.675,1.12 v 0 c -0.13,0.452 -0.195,1.012 -0.195,1.682 v 0 3.711 c 0,0.642 0.065,1.198 0.195,1.661 v 0 c 0.128,0.464 0.352,0.844 0.675,1.14 v 0 c 0.322,0.297 0.754,0.508 1.296,0.638 v 0 c 0.54,0.128 1.222,0.193 2.048,0.193 v 0 h 9.738 c 1.676,0 2.803,-0.283 3.382,-0.85 v 0 c 0.58,-0.567 0.871,-1.534 0.871,-2.898 v 0 -7.228 H 456.03 c -0.826,0 -1.508,0.064 -2.048,0.194"
         id="path196" />
    </clipPath>
    <linearGradient
       x1="0"
       y1="0"
       x2="1"
       y2="0"
       gradientUnits="userSpaceOnUse"
       gradientTransform="matrix(343.4624,-10.011236,-10.011236,-343.4624,186.82341,199.28394)"
       spreadMethod="pad"
       id="linearGradient208">
      <stop
         style="stop-opacity:1;stop-color:#00aeef"
         offset="0"
         id="stop204" />
      <stop
         style="stop-opacity:1;stop-color:#262261"
         offset="1"
         id="stop206" />
    </linearGradient>
    <clipPath
       clipPathUnits="userSpaceOnUse"
       id="clipPath218">
      <path
         d="m 481.188,214.123 c -0.593,0 -0.889,-0.285 -0.889,-0.851 v 0 -3.672 c 0,-0.592 0.296,-0.889 0.889,-0.889 v 0 h 3.788 c 0.566,0 0.85,0.297 0.85,0.889 v 0 3.672 c 0,0.566 -0.284,0.851 -0.85,0.851 v 0 z m 0,-7.847 c -0.566,0 -0.85,-0.296 -0.85,-0.888 v 0 -19.479 c 0,-0.568 0.284,-0.85 0.85,-0.85 v 0 h 3.788 c 0.566,0 0.85,0.282 0.85,0.85 v 0 19.479 c 0,0.592 -0.284,0.888 -0.85,0.888 v 0 z"
         id="path216" />
    </clipPath>
    <linearGradient
       x1="0"
       y1="0"
       x2="1"
       y2="0"
       gradientUnits="userSpaceOnUse"
       gradientTransform="matrix(343.4624,-10.011236,-10.011236,-343.4624,187.08382,208.21831)"
       spreadMethod="pad"
       id="linearGradient228">
      <stop
         style="stop-opacity:1;stop-color:#00aeef"
         offset="0"
         id="stop224" />
      <stop
         style="stop-opacity:1;stop-color:#262261"
         offset="1"
         id="stop226" />
    </linearGradient>
    <clipPath
       clipPathUnits="userSpaceOnUse"
       id="clipPath238">
      <path
         d="m 499.005,206.276 c -1.752,0 -3.214,-0.148 -4.387,-0.444 v 0 c -1.172,-0.296 -2.114,-0.76 -2.82,-1.391 v 0 c -0.71,-0.632 -1.219,-1.443 -1.528,-2.435 v 0 c -0.309,-0.992 -0.464,-2.184 -0.464,-3.575 v 0 -5.565 c 0,-1.392 0.155,-2.584 0.464,-3.576 v 0 c 0.309,-0.991 0.818,-1.803 1.528,-2.434 v 0 c 0.706,-0.632 1.648,-1.089 2.82,-1.372 v 0 c 1.173,-0.284 2.635,-0.425 4.387,-0.425 v 0 h 15.537 c 0.463,0 0.695,0.232 0.695,0.696 v 0 3.247 c 0,0.463 -0.232,0.695 -0.695,0.695 v 0 h -14.996 c -0.851,0 -1.546,0.071 -2.087,0.213 v 0 c -0.541,0.14 -0.967,0.372 -1.275,0.695 v 0 c -0.31,0.322 -0.529,0.753 -0.658,1.295 v 0 c -0.129,0.541 -0.193,1.223 -0.193,2.048 v 0 3.439 c 0,0.799 0.064,1.475 0.193,2.03 v 0 c 0.129,0.554 0.348,0.991 0.658,1.314 v 0 c 0.308,0.322 0.734,0.553 1.275,0.695 v 0 c 0.541,0.141 1.236,0.214 2.087,0.214 v 0 h 14.996 c 0.463,0 0.695,0.23 0.695,0.694 v 0 3.247 c 0,0.463 -0.232,0.695 -0.695,0.695 v 0 z"
         id="path236" />
    </clipPath>
    <linearGradient
       x1="0"
       y1="0"
       x2="1"
       y2="0"
       gradientUnits="userSpaceOnUse"
       gradientTransform="matrix(343.4624,-10.011236,-10.011236,-343.4624,186.9895,204.9825)"
       spreadMethod="pad"
       id="linearGradient248">
      <stop
         style="stop-opacity:1;stop-color:#00aeef"
         offset="0"
         id="stop244" />
      <stop
         style="stop-opacity:1;stop-color:#262261"
         offset="1"
         id="stop246" />
    </linearGradient>
    <clipPath
       clipPathUnits="userSpaceOnUse"
       id="clipPath258">
      <path
         d="m 277.898,293.815 c 0,-39.335 31.828,-71.222 71.09,-71.222 v 0 c 39.261,0 71.089,31.887 71.089,71.222 v 0 c 0,39.334 -31.828,71.221 -71.089,71.221 v 0 c -39.262,0 -71.09,-31.887 -71.09,-71.221 m 60.117,37.847 -1.819,3.482 -11.454,21.312 c 7.523,2.919 15.694,4.538 24.246,4.538 v 0 c 8.636,0 16.883,-1.651 24.467,-4.626 v 0 l -11.323,-21.286 c -4.12,1.287 -8.499,1.99 -13.048,1.99 v 0 l -2.56,-0.08 -6.44,14.135 c 0,0 9.914,1.251 17.519,0 v 0 l -1.973,-5.102 -6.642,0.674 v -4.28 l 8.712,-0.63 5.588,12.284 c -4.593,1.089 -9.376,1.683 -14.3,1.683 v 0 c -4.93,0 -9.717,-0.595 -14.313,-1.686 v 0 l 7.803,-17.493 1.81,-3.663 c 1.54,0.18 3.104,0.283 4.693,0.283 v 0 c 9.511,0 18.236,-3.326 25.079,-8.866 v 0 l -2.189,-3.476 c -0.099,0.008 -0.194,0.03 -0.296,0.03 v 0 c -1.746,0 -3.226,-1.099 -3.813,-2.638 v 0 c -0.172,-0.453 -0.279,-0.939 -0.279,-1.452 v 0 c 0,-2.26 1.833,-4.092 4.092,-4.092 v 0 c 2.26,0 4.091,1.832 4.091,4.092 v 0 c 0,0.829 -0.251,1.6 -0.676,2.244 v 0 l 0.181,0.289 1.617,2.584 2.184,3.339 12.917,20.225 c 12.455,-10.37 21.103,-25.163 23.553,-41.975 v 0 l -23.765,-0.657 c -1.136,5.278 -3.243,10.198 -6.12,14.571 v 0 c 0.039,-0.06 0.082,-0.117 0.121,-0.178 v 0 l 9.132,12.19 c 0,0 5.854,-8.1 8.403,-15.373 v 0 l -5.423,-0.715 -2.595,6.151 -3.755,-2.053 3.626,-7.946 13.506,0.992 c -2.634,9.44 -7.428,17.977 -13.836,25.021 v 0 l -11.415,-14.986 -2.454,-3.231 c 4.952,-6.595 7.884,-14.777 7.884,-23.641 v 0 c 0,-2.18 -0.195,-4.312 -0.537,-6.396 v 0 l -3.623,0.078 c -0.641,1.421 -2.063,2.413 -3.724,2.413 v 0 c -2.26,0 -4.091,-1.831 -4.091,-4.09 v 0 c 0,-2.26 1.831,-4.091 4.091,-4.091 v 0 c 1.602,0 2.974,0.929 3.646,2.27 v 0 h 3.003 3.964 l 23.887,-0.48 c -2.598,-16.868 -11.453,-31.66 -24.109,-41.942 v 0 l -13.014,20.191 c 0,0 5.837,4.821 9.6,12.4 v 0 l 15.434,-1.663 c 0,0 -3.978,-9.168 -8.93,-15.073 v 0 l -3.383,4.299 3.965,5.371 -3.683,2.181 -4.981,-7.174 7.577,-10.865 c 6.502,6.856 11.464,15.192 14.305,24.463 v 0 l -18.612,2.155 -3.942,0.488 c -4.183,-9.782 -12.222,-17.524 -22.211,-21.387 v 0 l -1.714,3.245 c 0.46,0.662 0.734,1.463 0.734,2.331 v 0 c 0,2.259 -1.831,4.09 -4.091,4.09 v 0 c -2.259,0 -4.091,-1.831 -4.091,-4.09 v 0 c 0,-2.219 1.768,-4.013 3.969,-4.079 v 0 l 1.529,-2.725 1.821,-3.322 11.482,-21.389 c -7.465,-2.867 -15.563,-4.454 -24.034,-4.454 v 0 c -8.622,0 -16.855,1.645 -24.428,4.61 v 0 l 11.654,21.358 c 4.067,-1.253 8.388,-1.932 12.87,-1.932 v 0 l 2.022,0.051 6.775,-14.424 c 0,0 -9.899,-1.367 -17.518,-0.203 v 0 l 1.914,5.124 6.65,-0.597 -0.049,4.28 -8.719,0.529 -5.21,-11.813 c 4.513,-1.049 9.207,-1.621 14.039,-1.621 v 0 c 4.951,0 9.76,0.599 14.375,1.699 v 0 l -8.017,17.427 -1.433,3.519 c -1.617,-0.198 -3.26,-0.313 -4.932,-0.313 v 0 c -9.482,0 -18.184,3.305 -25.018,8.814 v 0 l 1.969,3.131 c 0.109,-0.009 0.214,-0.033 0.324,-0.033 v 0 c 2.26,0 4.092,1.832 4.092,4.091 v 0 c 0,2.26 -1.832,4.091 -4.092,4.091 v 0 c -2.259,0 -4.09,-1.831 -4.09,-4.091 v 0 c 0,-0.756 0.219,-1.456 0.577,-2.064 v 0 l -1.764,-2.468 -2.043,-3.059 -12.824,-20.61 c -12.387,10.303 -21.019,24.977 -23.535,41.664 v 0 l 24.014,0.669 c 1.146,-5.063 3.184,-9.789 5.939,-14.011 v 0 c -0.041,0.064 -0.088,0.127 -0.129,0.191 v 0 l -9.244,-12.654 c 0,0 -5.951,8.028 -8.588,15.271 v 0 l 5.414,0.78 2.668,-6.119 3.731,2.098 -3.722,7.902 -13.124,-1.123 c 2.691,-9.352 7.508,-17.798 13.91,-24.768 v 0 l 11.342,15.269 2.26,3.004 c -4.923,6.584 -7.838,14.741 -7.838,23.576 v 0 c 0,2.134 0.19,4.222 0.519,6.264 v 0 l 3.665,-0.092 c 0.556,-1.602 2.06,-2.759 3.851,-2.759 v 0 c 2.259,0 4.091,1.832 4.091,4.092 v 0 c 0,2.259 -1.832,4.09 -4.091,4.09 v 0 c -1.367,0 -2.568,-0.676 -3.311,-1.704 v 0 l -3.434,0.126 -3.792,0.104 -24.056,0.523 c 2.636,16.699 11.4,31.351 23.915,41.577 v 0 l 13.065,-20.215 c 0,0 -5.995,-5.158 -9.425,-12.367 v 0 l -15.559,1.647 c 5.011,10.7 8.953,15.017 8.953,15.017 v 0 l 3.272,-4.524 c -2.214,-2.311 -3.369,-5.294 -3.369,-5.294 v 0 l 3.176,-1.925 c 0.386,1.058 5.006,7.411 5.006,7.411 v 0 l -7.857,10.507 c -6.438,-6.886 -11.325,-15.238 -14.106,-24.511 v 0 l 18.825,-2.009 4.333,0.633 c 4.262,9.15 11.934,16.398 21.399,20.145 v 0 l 1.86,-3.467 c -0.315,-0.58 -0.509,-1.233 -0.509,-1.938 v 0 c 0,-2.26 1.831,-4.092 4.09,-4.092 v 0 c 2.26,0 4.092,1.832 4.092,4.092 v 0 c 0,2.259 -1.832,4.091 -4.092,4.091 v 0 c -0.075,0 -0.144,-0.018 -0.218,-0.023 v 0 z m -28.463,16.499 c 3.601,2.622 7.473,4.89 11.564,6.763 v 0 l 2.513,-4.684 c -5.942,-2.699 -9.537,-5.263 -11.209,-6.607 v 0 z m 64.555,1.549 2.819,5.183 c 4.234,-1.943 8.234,-4.303 11.94,-7.047 v 0 l -3.15,-5.003 c -5.435,4.067 -9.573,6.041 -11.609,6.867 m -59.696,-9.222 c 4.869,3.643 8.897,5.66 10.93,6.56 v 0 l 2.666,-4.971 c -5.337,-2.413 -8.809,-4.726 -10.698,-6.163 v 0 z m 55.331,1.195 2.588,4.758 c 6.011,-2.688 9.881,-5.443 11.453,-6.667 v 0 L 380.777,335 c -4.914,3.7 -8.792,5.702 -11.035,6.683 m -50.429,-8.933 c 4.68,3.416 8.506,5.303 10.406,6.136 v 0 l 2.737,-5.102 c -3.642,-1.498 -7.031,-3.471 -10.096,-5.847 v 0 z m 46.189,1.133 2.452,4.511 c 5.822,-2.686 9.502,-5.37 10.888,-6.467 v 0 l -2.682,-4.26 c -3.215,2.544 -6.797,4.649 -10.658,6.216 m -83.686,-40.185 c 0,2.333 0.12,4.637 0.351,6.909 v 0 l 5.327,-0.135 c -0.789,-6.513 -0.464,-10.941 -0.183,-13.074 v 0 l -5.184,-0.097 c -0.198,2.107 -0.311,4.238 -0.311,6.397 m 9.308,6.682 5.653,-0.143 c -0.756,-5.982 -0.582,-10.264 -0.33,-12.669 v 0 l -5.414,-0.101 c -0.601,6.211 -0.198,10.774 0.091,12.913 m 9.286,-0.235 5.593,-0.141 c -0.302,-2.042 -0.477,-4.124 -0.477,-6.249 v 0 c 0,-2.041 0.149,-4.045 0.424,-6.01 v 0 l -5.76,-0.107 c -0.525,6.207 -0.054,10.657 0.22,12.507 m 109.774,-13.362 c 0.76,6.406 0.437,10.761 0.158,12.873 v 0 l 5.533,0.102 c 0.178,-1.998 0.284,-4.016 0.284,-6.06 v 0 c 0,-2.376 -0.127,-4.722 -0.366,-7.035 v 0 z m -9.288,0.197 c 0.734,5.899 0.561,10.124 0.311,12.507 v 0 l 5.415,0.1 c 0.581,-6.033 0.218,-10.514 -0.069,-12.726 v 0 z m -8.78,0.187 c 0.333,2.15 0.526,4.346 0.526,6.588 v 0 c 0,1.887 -0.121,3.744 -0.357,5.567 v 0 l 5.178,0.096 c 0.511,-6.035 0.078,-10.421 -0.199,-12.36 v 0 z m -73.11,-32.138 3.017,4.796 c 3.259,-2.576 6.899,-4.693 10.82,-6.264 v 0 l -2.903,-5.206 c -5.95,2.821 -9.649,5.623 -10.934,6.674 m 46.119,-1.53 c 3.74,1.475 7.223,3.447 10.371,5.84 v 0 l 2.909,-4.607 c -4.873,-3.547 -8.831,-5.447 -10.645,-6.223 v 0 z m -51.063,-6.328 3.007,4.78 c 4.914,-3.794 8.803,-5.856 11.048,-6.867 v 0 l -2.637,-4.728 c -6.032,2.773 -9.884,5.591 -11.418,6.815 m 55.39,-1.863 c 5.478,2.444 9.033,4.802 10.953,6.258 v 0 l 2.892,-4.578 c -5.101,-3.806 -9.28,-5.834 -11.212,-6.666 v 0 z m -60.235,-5.837 2.911,4.627 c 5.393,-4.127 9.512,-6.146 11.539,-6.993 v 0 l -2.578,-4.621 c -4.207,1.927 -8.184,4.269 -11.872,6.987 m 64.559,-2.35 c 6.114,2.737 9.809,5.357 11.509,6.72 v 0 l 2.98,-4.72 c -3.705,-2.681 -7.692,-4.991 -11.911,-6.879 v 0 z"
         id="path256" />
    </clipPath>
    <linearGradient
       x1="0"
       y1="0"
       x2="1"
       y2="0"
       gradientUnits="userSpaceOnUse"
       gradientTransform="matrix(142.17877,0,0,-142.17877,277.89841,293.815)"
       spreadMethod="pad"
       id="linearGradient268">
      <stop
         style="stop-opacity:1;stop-color:#00aeef"
         offset="0"
         id="stop264" />
      <stop
         style="stop-opacity:1;stop-color:#262261"
         offset="1"
         id="stop266" />
    </linearGradient>
    <clipPath
       clipPathUnits="userSpaceOnUse"
       id="clipPath278">
      <path
         d="m 308.548,309.604 3.8,-0.537 c 0.168,0.395 0.353,0.781 0.533,1.17 v 0 z"
         id="path276" />
    </clipPath>
    <linearGradient
       x1="0"
       y1="0"
       x2="1"
       y2="0"
       gradientUnits="userSpaceOnUse"
       gradientTransform="matrix(4.3337588,0,0,-4.3337588,308.5477,309.65207)"
       spreadMethod="pad"
       id="linearGradient288">
      <stop
         style="stop-opacity:1;stop-color:#00aeef"
         offset="0"
         id="stop284" />
      <stop
         style="stop-opacity:1;stop-color:#262261"
         offset="1"
         id="stop286" />
    </linearGradient>
    <clipPath
       clipPathUnits="userSpaceOnUse"
       id="clipPath298">
      <path
         d="m 323.209,293.368 c 0,-1.007 0.812,-1.824 1.814,-1.824 v 0 c 1.003,0 1.815,0.817 1.815,1.824 v 0 c 0,1.006 -0.812,1.822 -1.815,1.822 v 0 c -1.002,0 -1.814,-0.816 -1.814,-1.822"
         id="path296" />
    </clipPath>
    <linearGradient
       x1="0"
       y1="0"
       x2="1"
       y2="0"
       gradientUnits="userSpaceOnUse"
       gradientTransform="matrix(3.6295004,0,0,-3.6295004,323.20859,293.36743)"
       spreadMethod="pad"
       id="linearGradient308">
      <stop
         style="stop-opacity:1;stop-color:#00aeef"
         offset="0"
         id="stop304" />
      <stop
         style="stop-opacity:1;stop-color:#262261"
         offset="1"
         id="stop306" />
    </linearGradient>
    <clipPath
       clipPathUnits="userSpaceOnUse"
       id="clipPath318">
      <path
         d="m 358.378,314.449 c 0,-1.037 0.825,-1.877 1.842,-1.877 v 0 c 1.017,0 1.84,0.84 1.84,1.877 v 0 c 0,1.036 -0.823,1.877 -1.84,1.877 v 0 c -1.017,0 -1.842,-0.841 -1.842,-1.877"
         id="path316" />
    </clipPath>
    <linearGradient
       x1="0"
       y1="0"
       x2="1"
       y2="0"
       gradientUnits="userSpaceOnUse"
       gradientTransform="matrix(3.6820171,0,0,-3.6820171,358.37842,314.44876)"
       spreadMethod="pad"
       id="linearGradient328">
      <stop
         style="stop-opacity:1;stop-color:#00aeef"
         offset="0"
         id="stop324" />
      <stop
         style="stop-opacity:1;stop-color:#262261"
         offset="1"
         id="stop326" />
    </linearGradient>
    <clipPath
       clipPathUnits="userSpaceOnUse"
       id="clipPath338">
      <path
         d="m 365.309,303.121 c 0,-1.037 0.824,-1.878 1.841,-1.878 v 0 c 1.017,0 1.841,0.841 1.841,1.878 v 0 c 0,1.037 -0.824,1.877 -1.841,1.877 v 0 c -1.017,0 -1.841,-0.84 -1.841,-1.877"
         id="path336" />
    </clipPath>
    <linearGradient
       x1="0"
       y1="0"
       x2="1"
       y2="0"
       gradientUnits="userSpaceOnUse"
       gradientTransform="matrix(3.6820171,0,0,-3.6820171,365.30927,303.12079)"
       spreadMethod="pad"
       id="linearGradient348">
      <stop
         style="stop-opacity:1;stop-color:#00aeef"
         offset="0"
         id="stop344" />
      <stop
         style="stop-opacity:1;stop-color:#262261"
         offset="1"
         id="stop346" />
    </linearGradient>
    <clipPath
       clipPathUnits="userSpaceOnUse"
       id="clipPath358">
      <path
         d="m 367.771,284.864 c 0,-1.027 0.828,-1.858 1.85,-1.858 v 0 c 1.021,0 1.85,0.831 1.85,1.858 v 0 c 0,1.026 -0.829,1.859 -1.85,1.859 v 0 c -1.022,0 -1.85,-0.833 -1.85,-1.859"
         id="path356" />
    </clipPath>
    <linearGradient
       x1="0"
       y1="0"
       x2="1"
       y2="0"
       gradientUnits="userSpaceOnUse"
       gradientTransform="matrix(3.7003474,0,0,-3.7003474,367.77081,284.86429)"
       spreadMethod="pad"
       id="linearGradient368">
      <stop
         style="stop-opacity:1;stop-color:#00aeef"
         offset="0"
         id="stop364" />
      <stop
         style="stop-opacity:1;stop-color:#262261"
         offset="1"
         id="stop366" />
    </linearGradient>
    <clipPath
       clipPathUnits="userSpaceOnUse"
       id="clipPath378">
      <path
         d="m 330.186,306.821 c 0,-1.007 0.812,-1.823 1.814,-1.823 v 0 c 1.003,0 1.815,0.816 1.815,1.823 v 0 c 0,1.007 -0.812,1.823 -1.815,1.823 v 0 c -1.002,0 -1.814,-0.816 -1.814,-1.823"
         id="path376" />
    </clipPath>
    <linearGradient
       x1="0"
       y1="0"
       x2="1"
       y2="0"
       gradientUnits="userSpaceOnUse"
       gradientTransform="matrix(3.6295004,0,0,-3.6295004,330.18573,306.82092)"
       spreadMethod="pad"
       id="linearGradient388">
      <stop
         style="stop-opacity:1;stop-color:#00aeef"
         offset="0"
         id="stop384" />
      <stop
         style="stop-opacity:1;stop-color:#262261"
         offset="1"
         id="stop386" />
    </linearGradient>
    <clipPath
       clipPathUnits="userSpaceOnUse"
       id="clipPath398">
      <path
         d="m 338.26,297.566 c 0,-1.007 0.813,-1.823 1.816,-1.823 v 0 c 1.001,0 1.814,0.816 1.814,1.823 v 0 c 0,1.007 -0.813,1.823 -1.814,1.823 v 0 c -1.003,0 -1.816,-0.816 -1.816,-1.823"
         id="path396" />
    </clipPath>
    <linearGradient
       x1="0"
       y1="0"
       x2="1"
       y2="0"
       gradientUnits="userSpaceOnUse"
       gradientTransform="matrix(3.6295004,0,0,-3.6295004,338.26086,297.56607)"
       spreadMethod="pad"
       id="linearGradient408">
      <stop
         style="stop-opacity:1;stop-color:#00aeef"
         offset="0"
         id="stop404" />
      <stop
         style="stop-opacity:1;stop-color:#262261"
         offset="1"
         id="stop406" />
    </linearGradient>
    <clipPath
       clipPathUnits="userSpaceOnUse"
       id="clipPath418">
      <path
         d="m 350.042,270.814 c 0,-1.026 0.828,-1.858 1.85,-1.858 v 0 c 1.022,0 1.85,0.832 1.85,1.858 v 0 c 0,1.026 -0.828,1.859 -1.85,1.859 v 0 c -1.022,0 -1.85,-0.833 -1.85,-1.859"
         id="path416" />
    </clipPath>
    <linearGradient
       x1="0"
       y1="0"
       x2="1"
       y2="0"
       gradientUnits="userSpaceOnUse"
       gradientTransform="matrix(3.7003474,0,0,-3.7003474,350.04208,270.81418)"
       spreadMethod="pad"
       id="linearGradient428">
      <stop
         style="stop-opacity:1;stop-color:#00aeef"
         offset="0"
         id="stop424" />
      <stop
         style="stop-opacity:1;stop-color:#262261"
         offset="1"
         id="stop426" />
    </linearGradient>
    <clipPath
       clipPathUnits="userSpaceOnUse"
       id="clipPath438">
      <path
         d="m 348.972,285.174 c 0,-0.856 0.691,-1.549 1.543,-1.549 v 0 c 0.851,0 1.542,0.693 1.542,1.549 v 0 c 0,0.855 -0.691,1.549 -1.542,1.549 v 0 c -0.852,0 -1.543,-0.694 -1.543,-1.549"
         id="path436" />
    </clipPath>
    <linearGradient
       x1="0"
       y1="0"
       x2="1"
       y2="0"
       gradientUnits="userSpaceOnUse"
       gradientTransform="matrix(3.0841773,0,0,-3.0841773,348.97275,285.1738)"
       spreadMethod="pad"
       id="linearGradient448">
      <stop
         style="stop-opacity:1;stop-color:#00aeef"
         offset="0"
         id="stop444" />
      <stop
         style="stop-opacity:1;stop-color:#262261"
         offset="1"
         id="stop446" />
    </linearGradient>
    <clipPath
       clipPathUnits="userSpaceOnUse"
       id="clipPath458">
      <path
         d="m 341.653,275.562 c 0,-1.01 0.814,-1.829 1.82,-1.829 v 0 c 1.006,0 1.82,0.819 1.82,1.829 v 0 c 0,1.01 -0.814,1.829 -1.82,1.829 v 0 c -1.006,0 -1.82,-0.819 -1.82,-1.829"
         id="path456" />
    </clipPath>
    <linearGradient
       x1="0"
       y1="0"
       x2="1"
       y2="0"
       gradientUnits="userSpaceOnUse"
       gradientTransform="matrix(3.6411715,0,0,-3.6411715,341.65228,275.56198)"
       spreadMethod="pad"
       id="linearGradient468">
      <stop
         style="stop-opacity:1;stop-color:#00aeef"
         offset="0"
         id="stop464" />
      <stop
         style="stop-opacity:1;stop-color:#262261"
         offset="1"
         id="stop466" />
    </linearGradient>
    <clipPath
       clipPathUnits="userSpaceOnUse"
       id="clipPath478">
      <path
         d="m 343.651,317.204 c 0,-0.923 0.765,-1.672 1.708,-1.672 v 0 c 0.944,0 1.709,0.749 1.709,1.672 v 0 c 0,0.924 -0.765,1.673 -1.709,1.673 v 0 c -0.943,0 -1.708,-0.749 -1.708,-1.673"
         id="path476" />
    </clipPath>
    <linearGradient
       x1="0"
       y1="0"
       x2="1"
       y2="0"
       gradientUnits="userSpaceOnUse"
       gradientTransform="matrix(3.4172969,0,0,-3.4172969,343.65033,317.20428)"
       spreadMethod="pad"
       id="linearGradient488">
      <stop
         style="stop-opacity:1;stop-color:#00aeef"
         offset="0"
         id="stop484" />
      <stop
         style="stop-opacity:1;stop-color:#262261"
         offset="1"
         id="stop486" />
    </linearGradient>
    <clipPath
       clipPathUnits="userSpaceOnUse"
       id="clipPath498">
      <path
         d="m 356.566,289.864 c 0,-1.257 1.014,-2.276 2.266,-2.276 v 0 c 1.251,0 2.265,1.019 2.265,2.276 v 0 c 0,1.257 -1.014,2.276 -2.265,2.276 v 0 c -1.252,0 -2.266,-1.019 -2.266,-2.276"
         id="path496" />
    </clipPath>
    <linearGradient
       x1="0"
       y1="0"
       x2="1"
       y2="0"
       gradientUnits="userSpaceOnUse"
       gradientTransform="matrix(4.5313811,0,0,-4.5313811,356.56573,289.86411)"
       spreadMethod="pad"
       id="linearGradient508">
      <stop
         style="stop-opacity:1;stop-color:#00aeef"
         offset="0"
         id="stop504" />
      <stop
         style="stop-opacity:1;stop-color:#262261"
         offset="1"
         id="stop506" />
    </linearGradient>
    <clipPath
       clipPathUnits="userSpaceOnUse"
       id="clipPath518">
      <path
         d="m 336.16,319.249 c -0.366,0.334 -0.851,0.543 -1.39,0.543 v 0 c -1.129,0 -2.045,-0.9 -2.045,-2.01 v 0 c 0,-0.175 0.029,-0.341 0.072,-0.502 v 0 c -4.447,-3.036 -7.998,-7.296 -10.186,-12.296 v 0 c -0.047,0.003 -0.092,0.014 -0.14,0.014 v 0 c -1.171,0 -2.121,-0.954 -2.121,-2.13 v 0 c 0,-0.716 0.355,-1.347 0.896,-1.733 v 0 c -0.686,-2.473 -1.059,-5.076 -1.059,-7.767 v 0 c 0,-1.8 0.172,-3.557 0.484,-5.265 v 0 c -0.753,-0.399 -1.271,-1.184 -1.271,-2.097 v 0 c 0,-1.315 1.061,-2.381 2.37,-2.381 v 0 c 0.032,0 0.061,0.008 0.092,0.009 v 0 c 0.594,-1.669 1.34,-3.263 2.214,-4.774 v 0 c -0.368,-0.38 -0.597,-0.897 -0.597,-1.469 v 0 c 0,-1.165 0.94,-2.109 2.1,-2.109 v 0 c 0.288,0 0.563,0.059 0.813,0.165 v 0 c 2.067,-2.623 4.574,-4.877 7.414,-6.647 v 0 c -0.018,-0.105 -0.032,-0.212 -0.032,-0.323 v 0 c 0,-1.026 0.828,-1.858 1.85,-1.858 v 0 c 0.494,0 0.941,0.197 1.272,0.514 v 0 c 0.936,-0.433 1.898,-0.817 2.885,-1.149 v 0 c 0.041,-0.989 0.847,-1.78 1.842,-1.78 v 0 c 0.654,0 1.227,0.344 1.556,0.859 v 0 c 1.848,-0.376 3.759,-0.574 5.718,-0.574 v 0 c 1.885,0 3.727,0.188 5.511,0.538 v 0 c 0.358,-0.698 1.072,-1.179 1.906,-1.179 v 0 c 1.189,0 2.152,0.968 2.152,2.161 v 0 c 0,0.043 -0.01,0.083 -0.012,0.125 v 0 c 11.156,3.961 19.153,14.655 19.153,27.234 v 0 c 0,0.997 -0.07,1.976 -0.169,2.947 v 0 c 0.694,0.309 1.179,0.988 1.179,1.781 v 0 c 0,1.084 -0.9,1.961 -2.009,1.961 v 0 c -1.11,0 -2.009,-0.877 -2.009,-1.961 v 0 c 0,-0.948 0.689,-1.739 1.606,-1.921 v 0 c 0.091,-0.917 0.155,-1.841 0.155,-2.781 v 0 c 0,-12.044 -7.665,-22.283 -18.354,-26.063 v 0 c -0.18,0.233 -0.405,0.423 -0.663,0.566 v 0 c 0.926,3.322 0.712,7.806 0.543,9.864 v 0 c 0.546,0.323 0.961,0.835 1.161,1.45 v 0 l 6.95,-1.982 c -0.045,-0.16 -0.076,-0.324 -0.076,-0.498 v 0 c 0,-1.026 0.828,-1.858 1.85,-1.858 v 0 c 1.022,0 1.85,0.832 1.85,1.858 v 0 c 0,1.027 -0.828,1.859 -1.85,1.859 v 0 c -0.483,0 -0.918,-0.19 -1.248,-0.495 v 0 l -7.357,2.145 c -0.029,0.349 -0.122,0.676 -0.273,0.973 v 0 c 11.18,7.744 13.672,20.06 14.224,24.864 v 0 c 1.011,0.134 1.794,0.981 1.794,2.018 v 0 c 0,1.131 -0.926,2.046 -2.069,2.046 v 0 c -1.143,0 -2.07,-0.915 -2.07,-2.046 v 0 c 0,-0.867 0.549,-1.604 1.32,-1.902 v 0 c -0.523,-12.578 -10.253,-21.627 -13.609,-24.382 v 0 c -0.479,0.518 -1.158,0.847 -1.917,0.847 v 0 c -1.146,0 -2.11,-0.742 -2.466,-1.772 v 0 c -2.432,0.027 -10.744,0.051 -15.732,-0.711 v 0 c -0.019,0.06 -0.033,0.123 -0.055,0.181 v 0 c 3.441,2.062 12.233,7.885 20.002,17.548 v 0 c 0.328,-0.212 0.716,-0.338 1.134,-0.338 v 0 c 1.158,0 2.098,0.944 2.098,2.108 v 0 c 0,1.165 -0.94,2.108 -2.098,2.108 v 0 c -1.159,0 -2.099,-0.943 -2.099,-2.108 v 0 c 0,-0.37 0.104,-0.712 0.27,-1.014 v 0 c -2.544,-2.98 -10.558,-11.871 -19.934,-17.221 v 0 c -0.226,0.284 -0.482,0.541 -0.774,0.756 v 0 c 2.965,4.817 6.111,8.94 9.227,12.442 v 0 c 0.385,-0.268 0.851,-0.427 1.355,-0.427 v 0 c 1.315,0 2.382,1.071 2.382,2.392 v 0 c 0,0.556 -0.196,1.06 -0.512,1.466 v 0 c 8.188,8.228 15.595,12.231 18.084,13.441 v 0 c 0.42,-0.353 0.953,-0.573 1.543,-0.573 v 0 c 1.329,0 2.407,1.077 2.407,2.406 v 0 c 0,1.329 -1.078,2.406 -2.407,2.406 v 0 c -1.328,0 -2.407,-1.077 -2.407,-2.406 v 0 c 0,-0.4 0.107,-0.772 0.28,-1.104 v 0 c -7.544,-3.627 -13.718,-8.548 -18.546,-13.398 v 0 c -0.156,0.057 -0.319,0.097 -0.489,0.121 v 0 c -0.188,1.382 -0.817,4.322 -2.914,8.107 v 0 c 0.467,0.48 0.757,1.134 0.757,1.858 v 0 c 0,0.331 -0.068,0.644 -0.178,0.937 v 0 c 3.152,2.238 5.954,3.564 7.404,4.175 v 0 c 0.339,-0.408 0.843,-0.672 1.413,-0.672 v 0 c 1.023,0 1.853,0.835 1.853,1.865 v 0 c 0,1.03 -0.83,1.865 -1.853,1.865 v 0 c -1.012,0 -1.831,-0.817 -1.849,-1.83 v 0 c -3.006,-1.234 -5.588,-2.698 -7.802,-4.265 v 0 c -0.45,0.36 -1.015,0.584 -1.636,0.584 v 0 c -0.337,0 -0.658,-0.07 -0.956,-0.186 v 0 c -1.411,1.852 -3.167,3.812 -5.343,5.824 v 0 c 0.053,0.178 0.091,0.364 0.091,0.559 v 0 c 0,0.138 -0.014,0.272 -0.041,0.401 v 0 c 3.656,1.813 7.769,2.835 12.122,2.835 v 0 c 2.396,0 4.715,-0.325 6.931,-0.907 v 0 c 0.003,-1.067 0.858,-1.932 1.913,-1.932 v 0 c 1.057,0 1.913,0.867 1.913,1.937 v 0 c 0,1.07 -0.856,1.937 -1.913,1.937 v 0 c -0.625,0 -1.174,-0.307 -1.523,-0.775 v 0 c -2.338,0.622 -4.788,0.968 -7.321,0.968 v 0 c -4.576,0 -8.899,-1.082 -12.737,-2.997 m -0.056,-2.979 c 1.093,-1.038 3.027,-3.007 4.965,-5.566 v 0 c -0.425,-0.471 -0.692,-1.091 -0.692,-1.778 v 0 c 0,-0.431 0.112,-0.833 0.294,-1.193 v 0 c -5.107,-4.835 -7.347,-9.81 -8.07,-11.721 v 0 c -0.256,0.072 -0.521,0.123 -0.799,0.123 v 0 c -0.367,0 -0.714,-0.076 -1.038,-0.198 v 0 c -1.524,2.3 -3.576,4.469 -6.328,6.143 v 0 c 0.098,0.243 0.155,0.509 0.155,0.788 v 0 c 0,0.682 -0.325,1.283 -0.822,1.673 v 0 c 2.088,4.757 5.467,8.81 9.696,11.705 v 0 c 0.355,-0.291 0.807,-0.474 1.305,-0.474 v 0 c 0.512,0 0.975,0.192 1.334,0.498 m -0.963,-33.33 c -0.129,1.48 -0.526,4.43 -1.732,7.719 v 0 c 0.815,0.531 1.358,1.449 1.358,2.497 v 0 c 0,1.031 -0.521,1.939 -1.313,2.473 v 0 c 2.128,4.651 5.104,8.285 8.131,11.07 v 0 c 0.414,-0.272 0.907,-0.433 1.439,-0.433 v 0 c 0.304,0 0.591,0.062 0.862,0.157 v 0 c 1.306,-2.347 2.327,-4.934 2.713,-7.606 v 0 c -0.871,-0.355 -1.487,-1.211 -1.487,-2.215 v 0 c 0,-0.337 0.071,-0.659 0.197,-0.95 v 0 c -4.983,-5.588 -8.102,-10.637 -9.403,-12.914 v 0 c -0.245,0.091 -0.499,0.159 -0.765,0.202 m -11.362,18.263 c 1.106,-0.753 3.653,-2.708 5.914,-5.954 v 0 c -0.529,-0.539 -0.856,-1.277 -0.856,-2.093 v 0 c 0,-1.645 1.327,-2.978 2.965,-2.978 v 0 c 0.182,0 0.358,0.022 0.531,0.053 v 0 c 0.799,-2.118 1.333,-4.551 1.437,-7.298 v 0 c -0.791,-0.141 -1.497,-0.509 -2.062,-1.034 v 0 c -3.144,2.027 -6.255,3.522 -7.569,4.123 v 0 c -0.009,1.264 -1,2.286 -2.245,2.352 v 0 c -0.298,1.629 -0.461,3.304 -0.461,5.02 v 0 c 0,2.546 0.349,5.008 0.99,7.349 v 0 c 0.016,-10e-4 0.032,-0.005 0.048,-0.005 v 0 c 0.496,0 0.947,0.178 1.308,0.465 m -0.719,-17.191 c 0.295,0.194 0.54,0.452 0.724,0.753 v 0 c 3.007,-1.206 6.022,-3.299 7.049,-4.043 v 0 c -0.278,-0.557 -0.449,-1.176 -0.449,-1.841 v 0 c 0,-0.328 0.047,-0.644 0.12,-0.951 v 0 H 327.6 c -0.239,0.902 -1.049,1.569 -2.021,1.569 v 0 c -0.135,0 -0.266,-0.015 -0.393,-0.039 v 0 c -0.839,1.44 -1.554,2.961 -2.126,4.552 m 18.635,-16.098 c -0.984,3.076 -3.256,6.698 -4.218,8.156 v 0 c 0.688,0.737 1.117,1.721 1.117,2.811 v 0 c 0,0.07 -0.016,0.134 -0.019,0.202 v 0 c 1.257,0.325 4.919,0.768 15.371,0.925 v 0 c 0.002,-0.495 0.148,-0.954 0.388,-1.348 v 0 c -2.484,-1.555 -8.817,-5.848 -11.981,-10.891 v 0 c -0.203,0.088 -0.425,0.136 -0.658,0.145 m 1.752,-1.6 c -0.036,0.268 -0.125,0.515 -0.261,0.734 v 0 c 1.123,1.625 4.79,6.345 12.019,10.735 v 0 c 0.398,-0.244 0.86,-0.392 1.361,-0.392 v 0 c 0.054,0 0.106,0.012 0.16,0.016 v 0 c 0.338,-3.872 -0.045,-7.376 -0.332,-9.244 v 0 c -0.027,10e-4 -0.053,0.008 -0.08,0.008 v 0 c -1.093,0 -1.987,-0.823 -2.124,-1.884 v 0 c -1.713,-0.337 -3.482,-0.518 -5.293,-0.518 v 0 c -1.866,0 -3.688,0.189 -5.45,0.545 m -16.095,9.959 c 0.134,0.213 0.234,0.45 0.284,0.706 v 0 h 3.231 c 0.44,-0.845 1.147,-1.526 2.027,-1.898 v 0 c 0.088,-1.308 0.326,-3.172 0.947,-4.788 v 0 c -2.47,1.633 -4.661,3.654 -6.489,5.98 m 9.218,-0.928 c 2.012,-2.273 3.523,-6.168 4.071,-7.713 v 0 c -0.182,-0.114 -0.338,-0.261 -0.471,-0.431 v 0 c -0.929,0.313 -1.834,0.674 -2.716,1.081 v 0 c 0.007,0.065 0.02,0.129 0.02,0.195 v 0 c 0,1.027 -0.828,1.859 -1.85,1.859 v 0 c -0.185,0 -0.361,-0.035 -0.529,-0.087 v 0 c -0.448,1.011 -1.019,2.664 -1.058,4.554 v 0 c 0.15,-0.017 0.297,-0.046 0.453,-0.046 v 0 c 0.763,0 1.468,0.224 2.08,0.588"
         id="path516" />
    </clipPath>
    <linearGradient
       x1="0"
       y1="0"
       x2="1"
       y2="0"
       gradientUnits="userSpaceOnUse"
       gradientTransform="matrix(59.217064,0,0,-59.217064,319.40039,293.04691)"
       spreadMethod="pad"
       id="linearGradient528">
      <stop
         style="stop-opacity:1;stop-color:#00aeef"
         offset="0"
         id="stop524" />
      <stop
         style="stop-opacity:1;stop-color:#262261"
         offset="1"
         id="stop526" />
    </linearGradient>
  </defs>
  <sodipodi:namedview
     id="namedview4"
     pagecolor="#ffffff"
     bordercolor="#000000"
     borderopacity="0.25"
     inkscape:showpageshadow="2"
     inkscape:pageopacity="0.0"
     inkscape:pagecheckerboard="0"
     inkscape:deskcolor="#d1d1d1"
     showgrid="false" />
  <g
     id="g10"
     inkscape:groupmode="layer"
     inkscape:label="Page 1"
     transform="matrix(1.3333333,0,0,-1.3333333,-243.65204,486.71466)">
    <g
       id="g12">
      <g
         id="g14"
         clip-path="url(#clipPath18)">
        <g
           id="g20">
          <g
             id="g22">
            <path
               d="m 199.603,212.112 c -0.825,0 -1.546,-0.2 -2.165,-0.598 v 0 c -0.618,-0.4 -1.25,-1.179 -1.893,-2.34 v 0 l -12.677,-23.226 c -0.129,-0.258 -0.161,-0.471 -0.097,-0.638 v 0 c 0.065,-0.167 0.265,-0.251 0.599,-0.251 v 0 h 5.025 c 0.412,0 0.709,0.166 0.888,0.502 v 0 l 2.667,4.986 h 18.165 l 2.744,-4.986 c 0.154,-0.336 0.45,-0.502 0.888,-0.502 v 0 h 4.909 c 0.309,0 0.496,0.084 0.561,0.251 v 0 c 0.064,0.167 0.032,0.38 -0.097,0.638 v 0 l -12.793,23.226 c -0.644,1.161 -1.301,1.94 -1.97,2.34 v 0 c -0.671,0.398 -1.495,0.598 -2.474,0.598 v 0 z m 0.849,-5.759 c 0.103,0.181 0.245,0.271 0.426,0.271 v 0 h 0.231 c 0.18,0 0.323,-0.09 0.426,-0.271 v 0 l 6.145,-11.323 h -13.295 z"
               style="fill:url(#linearGradient28);stroke:none"
               id="path30" />
          </g>
        </g>
      </g>
    </g>
    <g
       id="g32">
      <g
         id="g34"
         clip-path="url(#clipPath38)">
        <g
           id="g40">
          <g
             id="g42">
            <path
               d="m 231.371,206.276 c -1.752,0 -3.215,-0.148 -4.387,-0.444 v 0 c -1.172,-0.296 -2.113,-0.76 -2.821,-1.391 v 0 c -0.709,-0.632 -1.217,-1.443 -1.526,-2.435 v 0 c -0.31,-0.992 -0.465,-2.184 -0.465,-3.575 v 0 -12.522 c 0,-0.568 0.296,-0.85 0.889,-0.85 v 0 h 3.788 c 0.567,0 0.851,0.282 0.851,0.85 v 0 11.478 c 0,0.799 0.063,1.475 0.193,2.03 v 0 c 0.128,0.554 0.353,0.991 0.675,1.314 v 0 c 0.323,0.322 0.755,0.553 1.296,0.695 v 0 c 0.54,0.141 1.224,0.214 2.048,0.214 v 0 h 10.281 c 0.463,0 0.694,0.23 0.694,0.694 v 0 3.247 c 0,0.463 -0.231,0.695 -0.694,0.695 v 0 z"
               style="fill:url(#linearGradient48);stroke:none"
               id="path50" />
          </g>
        </g>
      </g>
    </g>
    <g
       id="g52">
      <g
         id="g54"
         clip-path="url(#clipPath58)">
        <g
           id="g60">
          <g
             id="g62">
            <path
               d="m 254.25,206.276 c -1.752,0 -3.215,-0.148 -4.387,-0.444 v 0 c -1.172,-0.296 -2.113,-0.76 -2.821,-1.391 v 0 c -0.709,-0.632 -1.217,-1.443 -1.526,-2.435 v 0 c -0.31,-0.992 -0.465,-2.184 -0.465,-3.575 v 0 -5.565 c 0,-1.392 0.155,-2.584 0.465,-3.576 v 0 c 0.309,-0.991 0.817,-1.803 1.526,-2.434 v 0 c 0.708,-0.632 1.649,-1.089 2.821,-1.372 v 0 c 1.172,-0.284 2.635,-0.425 4.387,-0.425 v 0 h 15.536 c 0.464,0 0.696,0.232 0.696,0.696 v 0 3.247 c 0,0.463 -0.232,0.695 -0.696,0.695 v 0 h -14.995 c -0.851,0 -1.545,0.071 -2.087,0.213 v 0 c -0.541,0.14 -0.967,0.372 -1.276,0.695 v 0 c -0.308,0.322 -0.528,0.753 -0.657,1.295 v 0 c -0.129,0.541 -0.192,1.223 -0.192,2.048 v 0 3.439 c 0,0.799 0.063,1.475 0.192,2.03 v 0 c 0.129,0.554 0.349,0.991 0.657,1.314 v 0 c 0.309,0.322 0.735,0.553 1.276,0.695 v 0 c 0.542,0.141 1.236,0.214 2.087,0.214 v 0 h 14.995 c 0.464,0 0.696,0.23 0.696,0.694 v 0 3.247 c 0,0.463 -0.232,0.695 -0.696,0.695 v 0 z"
               style="fill:url(#linearGradient68);stroke:none"
               id="path70" />
          </g>
        </g>
      </g>
    </g>
    <g
       id="g72">
      <g
         id="g74"
         clip-path="url(#clipPath78)">
        <g
           id="g80">
          <g
             id="g82">
            <path
               d="m 275.043,214.044 c -0.568,0 -0.851,-0.282 -0.851,-0.85 v 0 -27.285 c 0,-0.568 0.283,-0.85 0.851,-0.85 v 0 h 3.787 c 0.566,0 0.85,0.282 0.85,0.85 v 0 15.46 h 14.183 c 0.825,0 1.494,-0.071 2.01,-0.214 v 0 c 0.516,-0.141 0.922,-0.373 1.218,-0.694 v 0 c 0.296,-0.324 0.496,-0.761 0.599,-1.315 v 0 c 0.103,-0.555 0.154,-1.231 0.154,-2.029 v 0 -11.208 c 0,-0.568 0.284,-0.85 0.851,-0.85 v 0 h 3.787 c 0.567,0 0.85,0.282 0.85,0.85 v 0 12.522 c 0,1.391 -0.154,2.583 -0.463,3.575 v 0 c -0.31,0.992 -0.818,1.803 -1.527,2.435 v 0 c -0.709,0.631 -1.656,1.095 -2.84,1.391 v 0 c -1.186,0.296 -2.641,0.444 -4.368,0.444 v 0 H 279.68 v 6.918 c 0,0.568 -0.284,0.85 -0.85,0.85 v 0 z"
               style="fill:url(#linearGradient88);stroke:none"
               id="path90" />
          </g>
        </g>
      </g>
    </g>
    <g
       id="g92">
      <g
         id="g94"
         clip-path="url(#clipPath98)">
        <g
           id="g100">
          <g
             id="g102">
            <path
               d="m 308.588,206.276 c -0.463,0 -0.695,-0.232 -0.695,-0.695 v 0 -3.247 c 0,-0.464 0.232,-0.694 0.695,-0.694 v 0 h 16.155 c 0.85,0 1.546,-0.066 2.088,-0.195 v 0 c 0.54,-0.129 0.965,-0.328 1.275,-0.599 v 0 c 0.308,-0.27 0.527,-0.625 0.657,-1.062 v 0 c 0.128,-0.438 0.192,-0.966 0.192,-1.585 v 0 -0.734 h -15.729 c -1.134,0 -2.081,-0.11 -2.84,-0.329 v 0 c -0.761,-0.219 -1.373,-0.547 -1.836,-0.985 v 0 c -0.465,-0.439 -0.792,-0.973 -0.986,-1.604 v 0 c -0.193,-0.632 -0.29,-1.347 -0.29,-2.146 v 0 -1.854 c 0,-0.953 0.097,-1.778 0.29,-2.474 v 0 c 0.194,-0.695 0.521,-1.263 0.986,-1.7 v 0 c 0.463,-0.438 1.075,-0.767 1.836,-0.986 v 0 c 0.759,-0.219 1.706,-0.328 2.84,-0.328 v 0 h 18.396 c 0.567,0 1.031,0.045 1.391,0.135 v 0 c 0.361,0.091 0.651,0.252 0.871,0.483 v 0 c 0.218,0.232 0.372,0.547 0.463,0.948 v 0 c 0.09,0.398 0.135,0.908 0.135,1.525 v 0 10.281 c 0,1.391 -0.154,2.583 -0.463,3.575 v 0 c -0.31,0.992 -0.818,1.803 -1.527,2.435 v 0 c -0.709,0.631 -1.656,1.095 -2.84,1.391 v 0 c -1.186,0.296 -2.642,0.444 -4.368,0.444 v 0 z m 4.542,-16.483 c -0.323,0.322 -0.484,0.831 -0.484,1.526 v 0 0.813 c 0,0.618 0.161,1.087 0.484,1.41 v 0 c 0.321,0.322 0.882,0.483 1.681,0.483 v 0 h 14.144 v -3.401 c 0,-0.49 -0.083,-0.831 -0.251,-1.024 v 0 c -0.167,-0.193 -0.458,-0.289 -0.869,-0.289 v 0 h -13.024 c -0.799,0 -1.36,0.16 -1.681,0.482"
               style="fill:url(#linearGradient108);stroke:none"
               id="path110" />
          </g>
        </g>
      </g>
    </g>
    <g
       id="g112">
      <g
         id="g114"
         clip-path="url(#clipPath118)">
        <g
           id="g120">
          <g
             id="g122">
            <path
               d="m 346.965,206.276 c -1.752,0 -3.215,-0.148 -4.386,-0.444 v 0 c -1.173,-0.296 -2.114,-0.76 -2.822,-1.391 v 0 c -0.709,-0.632 -1.217,-1.443 -1.526,-2.435 v 0 c -0.31,-0.992 -0.464,-2.184 -0.464,-3.575 v 0 -5.565 c 0,-1.392 0.154,-2.584 0.464,-3.576 v 0 c 0.309,-0.991 0.817,-1.803 1.526,-2.434 v 0 c 0.708,-0.632 1.649,-1.089 2.822,-1.372 v 0 c 1.171,-0.284 2.634,-0.425 4.386,-0.425 v 0 h 16.659 c 0.463,0 0.695,0.232 0.695,0.696 v 0 3.247 c 0,0.463 -0.232,0.695 -0.695,0.695 v 0 h -16.117 c -1.676,0 -2.803,0.27 -3.382,0.811 v 0 c -0.58,0.54 -0.87,1.417 -0.87,2.627 v 0 0.929 h 19.519 c 0.746,0 1.299,0.161 1.66,0.483 v 0 c 0.361,0.322 0.541,0.894 0.541,1.719 v 0 3.672 c 0,1.16 -0.103,2.145 -0.308,2.957 v 0 c -0.206,0.812 -0.56,1.468 -1.063,1.97 v 0 c -0.504,0.503 -1.185,0.863 -2.049,1.084 v 0 c -0.864,0.217 -1.952,0.327 -3.264,0.327 v 0 z m -3.71,-7.729 c 0,1.237 0.29,2.119 0.87,2.648 v 0 c 0.579,0.527 1.706,0.792 3.382,0.792 v 0 h 9.7 c 0.903,0 1.521,-0.168 1.855,-0.502 v 0 c 0.336,-0.335 0.503,-0.903 0.503,-1.701 v 0 -1.624 c 0,-0.437 -0.218,-0.657 -0.657,-0.657 v 0 h -15.653 z"
               style="fill:url(#linearGradient128);stroke:none"
               id="path130" />
          </g>
        </g>
      </g>
    </g>
    <g
       id="g132">
      <g
         id="g134"
         clip-path="url(#clipPath138)">
        <g
           id="g140">
          <g
             id="g142">
            <path
               d="m 377.96,206.276 c -1.751,0 -3.214,-0.148 -4.386,-0.444 v 0 c -1.173,-0.296 -2.113,-0.76 -2.822,-1.391 v 0 c -0.708,-0.632 -1.217,-1.443 -1.526,-2.435 v 0 c -0.309,-0.992 -0.464,-2.184 -0.464,-3.575 v 0 -5.565 c 0,-1.392 0.155,-2.584 0.464,-3.576 v 0 c 0.309,-0.991 0.818,-1.803 1.526,-2.434 v 0 c 0.709,-0.632 1.649,-1.089 2.822,-1.372 v 0 c 1.172,-0.284 2.635,-0.425 4.386,-0.425 v 0 h 10.938 c 1.726,0 3.182,0.141 4.367,0.425 v 0 c 1.184,0.283 2.132,0.74 2.84,1.372 v 0 c 0.709,0.631 1.218,1.443 1.527,2.434 v 0 c 0.31,0.992 0.465,2.184 0.465,3.576 v 0 5.565 c 0,1.391 -0.155,2.583 -0.465,3.575 v 0 c -0.309,0.992 -0.818,1.803 -1.527,2.435 v 0 c -0.708,0.631 -1.656,1.095 -2.84,1.391 v 0 c -1.185,0.296 -2.641,0.444 -4.367,0.444 v 0 z m -1.506,-16.483 c -0.542,0.141 -0.974,0.373 -1.295,0.697 v 0 c -0.323,0.321 -0.548,0.753 -0.676,1.293 v 0 c -0.13,0.542 -0.195,1.224 -0.195,2.049 v 0 3.671 c 0,0.798 0.065,1.469 0.195,2.01 v 0 c 0.128,0.541 0.353,0.979 0.676,1.314 v 0 c 0.321,0.335 0.753,0.566 1.295,0.696 v 0 c 0.54,0.128 1.222,0.193 2.048,0.193 v 0 h 9.855 c 0.851,0 1.545,-0.065 2.086,-0.193 v 0 c 0.542,-0.13 0.973,-0.361 1.295,-0.696 v 0 c 0.323,-0.335 0.548,-0.773 0.676,-1.314 v 0 c 0.129,-0.541 0.195,-1.212 0.195,-2.01 v 0 -3.671 c 0,-0.825 -0.066,-1.507 -0.195,-2.049 v 0 c -0.128,-0.54 -0.353,-0.972 -0.676,-1.293 v 0 c -0.322,-0.324 -0.753,-0.556 -1.295,-0.697 v 0 c -0.541,-0.142 -1.235,-0.213 -2.086,-0.213 v 0 h -9.855 c -0.826,0 -1.508,0.071 -2.048,0.213"
               style="fill:url(#linearGradient148);stroke:none"
               id="path150" />
          </g>
        </g>
      </g>
    </g>
    <g
       id="g152">
      <g
         id="g154"
         clip-path="url(#clipPath158)">
        <g
           id="g160">
          <g
             id="g162">
            <path
               d="m 403.546,214.044 c -0.567,0 -0.85,-0.282 -0.85,-0.85 v 0 -27.285 c 0,-0.568 0.283,-0.85 0.85,-0.85 v 0 h 3.788 c 0.566,0 0.85,0.282 0.85,0.85 v 0 27.285 c 0,0.568 -0.284,0.85 -0.85,0.85 v 0 z"
               style="fill:url(#linearGradient168);stroke:none"
               id="path170" />
          </g>
        </g>
      </g>
    </g>
    <g
       id="g172">
      <g
         id="g174"
         clip-path="url(#clipPath178)">
        <g
           id="g180">
          <g
             id="g182">
            <path
               d="m 421.942,206.276 c -1.752,0 -3.214,-0.148 -4.387,-0.444 v 0 c -1.173,-0.296 -2.113,-0.76 -2.822,-1.391 v 0 c -0.708,-0.632 -1.217,-1.443 -1.526,-2.435 v 0 c -0.309,-0.992 -0.463,-2.184 -0.463,-3.575 v 0 -5.565 c 0,-1.392 0.154,-2.584 0.463,-3.576 v 0 c 0.309,-0.991 0.818,-1.803 1.526,-2.434 v 0 c 0.709,-0.632 1.649,-1.089 2.822,-1.372 v 0 c 1.173,-0.284 2.635,-0.425 4.387,-0.425 v 0 h 10.937 c 1.726,0 3.182,0.141 4.367,0.425 v 0 c 1.184,0.283 2.132,0.74 2.84,1.372 v 0 c 0.709,0.631 1.218,1.443 1.527,2.434 v 0 c 0.31,0.992 0.465,2.184 0.465,3.576 v 0 5.565 c 0,1.391 -0.155,2.583 -0.465,3.575 v 0 c -0.309,0.992 -0.818,1.803 -1.527,2.435 v 0 c -0.708,0.631 -1.656,1.095 -2.84,1.391 v 0 c -1.185,0.296 -2.641,0.444 -4.367,0.444 v 0 z m -1.507,-16.483 c -0.542,0.141 -0.974,0.373 -1.295,0.697 v 0 c -0.323,0.321 -0.547,0.753 -0.676,1.293 v 0 c -0.13,0.542 -0.194,1.224 -0.194,2.049 v 0 3.671 c 0,0.798 0.064,1.469 0.194,2.01 v 0 c 0.129,0.541 0.353,0.979 0.676,1.314 v 0 c 0.321,0.335 0.753,0.566 1.295,0.696 v 0 c 0.54,0.128 1.222,0.193 2.048,0.193 v 0 h 9.855 c 0.851,0 1.546,-0.065 2.087,-0.193 v 0 c 0.541,-0.13 0.972,-0.361 1.295,-0.696 v 0 c 0.322,-0.335 0.547,-0.773 0.676,-1.314 v 0 c 0.128,-0.541 0.194,-1.212 0.194,-2.01 v 0 -3.671 c 0,-0.825 -0.066,-1.507 -0.194,-2.049 v 0 c -0.129,-0.54 -0.354,-0.972 -0.676,-1.293 v 0 c -0.323,-0.324 -0.754,-0.556 -1.295,-0.697 v 0 c -0.541,-0.142 -1.236,-0.213 -2.087,-0.213 v 0 h -9.855 c -0.826,0 -1.508,0.071 -2.048,0.213"
               style="fill:url(#linearGradient188);stroke:none"
               id="path190" />
          </g>
        </g>
      </g>
    </g>
    <g
       id="g192">
      <g
         id="g194"
         clip-path="url(#clipPath198)">
        <g
           id="g200">
          <g
             id="g202">
            <path
               d="m 455.488,206.276 c -1.751,0 -3.214,-0.148 -4.386,-0.444 v 0 c -1.173,-0.296 -2.114,-0.76 -2.822,-1.391 v 0 c -0.708,-0.632 -1.218,-1.443 -1.526,-2.435 v 0 c -0.31,-0.992 -0.464,-2.197 -0.464,-3.614 v 0 -4.059 c 0,-1.416 0.154,-2.621 0.464,-3.612 v 0 c 0.308,-0.992 0.818,-1.804 1.526,-2.435 v 0 c 0.708,-0.632 1.649,-1.095 2.822,-1.392 v 0 c 1.172,-0.295 2.635,-0.445 4.386,-0.445 v 0 h 14.533 v -1.003 c 0,-0.825 -0.065,-1.514 -0.194,-2.068 v 0 c -0.13,-0.554 -0.356,-0.991 -0.677,-1.314 v 0 c -0.322,-0.322 -0.753,-0.554 -1.295,-0.696 v 0 c -0.54,-0.141 -1.237,-0.212 -2.087,-0.212 v 0 h -17.662 c -0.463,0 -0.694,-0.233 -0.694,-0.696 v 0 -3.247 c 0,-0.464 0.231,-0.696 0.694,-0.696 v 0 h 18.204 c 1.752,0 3.214,0.149 4.385,0.445 v 0 c 1.173,0.297 2.12,0.76 2.843,1.392 v 0 c 0.721,0.632 1.229,1.443 1.525,2.433 v 0 c 0.296,0.993 0.445,2.198 0.445,3.615 v 0 14.067 c 0,1.392 -0.149,2.584 -0.445,3.575 v 0 c -0.296,0.991 -0.804,1.797 -1.525,2.416 v 0 c -0.723,0.618 -1.67,1.076 -2.843,1.372 v 0 c -1.171,0.296 -2.633,0.444 -4.385,0.444 v 0 z m -1.506,-15.342 c -0.542,0.129 -0.974,0.34 -1.296,0.637 v 0 c -0.323,0.296 -0.547,0.67 -0.675,1.12 v 0 c -0.13,0.452 -0.195,1.012 -0.195,1.682 v 0 3.711 c 0,0.642 0.065,1.198 0.195,1.661 v 0 c 0.128,0.464 0.352,0.844 0.675,1.14 v 0 c 0.322,0.297 0.754,0.508 1.296,0.638 v 0 c 0.54,0.128 1.222,0.193 2.048,0.193 v 0 h 9.738 c 1.676,0 2.803,-0.283 3.382,-0.85 v 0 c 0.58,-0.567 0.871,-1.534 0.871,-2.898 v 0 -7.228 H 456.03 c -0.826,0 -1.508,0.064 -2.048,0.194"
               style="fill:url(#linearGradient208);stroke:none"
               id="path210" />
          </g>
        </g>
      </g>
    </g>
    <g
       id="g212">
      <g
         id="g214"
         clip-path="url(#clipPath218)">
        <g
           id="g220">
          <g
             id="g222">
            <path
               d="m 481.188,214.123 c -0.593,0 -0.889,-0.285 -0.889,-0.851 v 0 -3.672 c 0,-0.592 0.296,-0.889 0.889,-0.889 v 0 h 3.788 c 0.566,0 0.85,0.297 0.85,0.889 v 0 3.672 c 0,0.566 -0.284,0.851 -0.85,0.851 v 0 z m 0,-7.847 c -0.566,0 -0.85,-0.296 -0.85,-0.888 v 0 -19.479 c 0,-0.568 0.284,-0.85 0.85,-0.85 v 0 h 3.788 c 0.566,0 0.85,0.282 0.85,0.85 v 0 19.479 c 0,0.592 -0.284,0.888 -0.85,0.888 v 0 z"
               style="fill:url(#linearGradient228);stroke:none"
               id="path230" />
          </g>
        </g>
      </g>
    </g>
    <g
       id="g232">
      <g
         id="g234"
         clip-path="url(#clipPath238)">
        <g
           id="g240">
          <g
             id="g242">
            <path
               d="m 499.005,206.276 c -1.752,0 -3.214,-0.148 -4.387,-0.444 v 0 c -1.172,-0.296 -2.114,-0.76 -2.82,-1.391 v 0 c -0.71,-0.632 -1.219,-1.443 -1.528,-2.435 v 0 c -0.309,-0.992 -0.464,-2.184 -0.464,-3.575 v 0 -5.565 c 0,-1.392 0.155,-2.584 0.464,-3.576 v 0 c 0.309,-0.991 0.818,-1.803 1.528,-2.434 v 0 c 0.706,-0.632 1.648,-1.089 2.82,-1.372 v 0 c 1.173,-0.284 2.635,-0.425 4.387,-0.425 v 0 h 15.537 c 0.463,0 0.695,0.232 0.695,0.696 v 0 3.247 c 0,0.463 -0.232,0.695 -0.695,0.695 v 0 h -14.996 c -0.851,0 -1.546,0.071 -2.087,0.213 v 0 c -0.541,0.14 -0.967,0.372 -1.275,0.695 v 0 c -0.31,0.322 -0.529,0.753 -0.658,1.295 v 0 c -0.129,0.541 -0.193,1.223 -0.193,2.048 v 0 3.439 c 0,0.799 0.064,1.475 0.193,2.03 v 0 c 0.129,0.554 0.348,0.991 0.658,1.314 v 0 c 0.308,0.322 0.734,0.553 1.275,0.695 v 0 c 0.541,0.141 1.236,0.214 2.087,0.214 v 0 h 14.996 c 0.463,0 0.695,0.23 0.695,0.694 v 0 3.247 c 0,0.463 -0.232,0.695 -0.695,0.695 v 0 z"
               style="fill:url(#linearGradient248);stroke:none"
               id="path250" />
          </g>
        </g>
      </g>
    </g>
    <g
       id="g252">
      <g
         id="g254"
         clip-path="url(#clipPath258)">
        <g
           id="g260">
          <g
             id="g262">
            <path
               d="m 277.898,293.815 c 0,-39.335 31.828,-71.222 71.09,-71.222 v 0 c 39.261,0 71.089,31.887 71.089,71.222 v 0 c 0,39.334 -31.828,71.221 -71.089,71.221 v 0 c -39.262,0 -71.09,-31.887 -71.09,-71.221 m 60.117,37.847 -1.819,3.482 -11.454,21.312 c 7.523,2.919 15.694,4.538 24.246,4.538 v 0 c 8.636,0 16.883,-1.651 24.467,-4.626 v 0 l -11.323,-21.286 c -4.12,1.287 -8.499,1.99 -13.048,1.99 v 0 l -2.56,-0.08 -6.44,14.135 c 0,0 9.914,1.251 17.519,0 v 0 l -1.973,-5.102 -6.642,0.674 v -4.28 l 8.712,-0.63 5.588,12.284 c -4.593,1.089 -9.376,1.683 -14.3,1.683 v 0 c -4.93,0 -9.717,-0.595 -14.313,-1.686 v 0 l 7.803,-17.493 1.81,-3.663 c 1.54,0.18 3.104,0.283 4.693,0.283 v 0 c 9.511,0 18.236,-3.326 25.079,-8.866 v 0 l -2.189,-3.476 c -0.099,0.008 -0.194,0.03 -0.296,0.03 v 0 c -1.746,0 -3.226,-1.099 -3.813,-2.638 v 0 c -0.172,-0.453 -0.279,-0.939 -0.279,-1.452 v 0 c 0,-2.26 1.833,-4.092 4.092,-4.092 v 0 c 2.26,0 4.091,1.832 4.091,4.092 v 0 c 0,0.829 -0.251,1.6 -0.676,2.244 v 0 l 0.181,0.289 1.617,2.584 2.184,3.339 12.917,20.225 c 12.455,-10.37 21.103,-25.163 23.553,-41.975 v 0 l -23.765,-0.657 c -1.136,5.278 -3.243,10.198 -6.12,14.571 v 0 c 0.039,-0.06 0.082,-0.117 0.121,-0.178 v 0 l 9.132,12.19 c 0,0 5.854,-8.1 8.403,-15.373 v 0 l -5.423,-0.715 -2.595,6.151 -3.755,-2.053 3.626,-7.946 13.506,0.992 c -2.634,9.44 -7.428,17.977 -13.836,25.021 v 0 l -11.415,-14.986 -2.454,-3.231 c 4.952,-6.595 7.884,-14.777 7.884,-23.641 v 0 c 0,-2.18 -0.195,-4.312 -0.537,-6.396 v 0 l -3.623,0.078 c -0.641,1.421 -2.063,2.413 -3.724,2.413 v 0 c -2.26,0 -4.091,-1.831 -4.091,-4.09 v 0 c 0,-2.26 1.831,-4.091 4.091,-4.091 v 0 c 1.602,0 2.974,0.929 3.646,2.27 v 0 h 3.003 3.964 l 23.887,-0.48 c -2.598,-16.868 -11.453,-31.66 -24.109,-41.942 v 0 l -13.014,20.191 c 0,0 5.837,4.821 9.6,12.4 v 0 l 15.434,-1.663 c 0,0 -3.978,-9.168 -8.93,-15.073 v 0 l -3.383,4.299 3.965,5.371 -3.683,2.181 -4.981,-7.174 7.577,-10.865 c 6.502,6.856 11.464,15.192 14.305,24.463 v 0 l -18.612,2.155 -3.942,0.488 c -4.183,-9.782 -12.222,-17.524 -22.211,-21.387 v 0 l -1.714,3.245 c 0.46,0.662 0.734,1.463 0.734,2.331 v 0 c 0,2.259 -1.831,4.09 -4.091,4.09 v 0 c -2.259,0 -4.091,-1.831 -4.091,-4.09 v 0 c 0,-2.219 1.768,-4.013 3.969,-4.079 v 0 l 1.529,-2.725 1.821,-3.322 11.482,-21.389 c -7.465,-2.867 -15.563,-4.454 -24.034,-4.454 v 0 c -8.622,0 -16.855,1.645 -24.428,4.61 v 0 l 11.654,21.358 c 4.067,-1.253 8.388,-1.932 12.87,-1.932 v 0 l 2.022,0.051 6.775,-14.424 c 0,0 -9.899,-1.367 -17.518,-0.203 v 0 l 1.914,5.124 6.65,-0.597 -0.049,4.28 -8.719,0.529 -5.21,-11.813 c 4.513,-1.049 9.207,-1.621 14.039,-1.621 v 0 c 4.951,0 9.76,0.599 14.375,1.699 v 0 l -8.017,17.427 -1.433,3.519 c -1.617,-0.198 -3.26,-0.313 -4.932,-0.313 v 0 c -9.482,0 -18.184,3.305 -25.018,8.814 v 0 l 1.969,3.131 c 0.109,-0.009 0.214,-0.033 0.324,-0.033 v 0 c 2.26,0 4.092,1.832 4.092,4.091 v 0 c 0,2.26 -1.832,4.091 -4.092,4.091 v 0 c -2.259,0 -4.09,-1.831 -4.09,-4.091 v 0 c 0,-0.756 0.219,-1.456 0.577,-2.064 v 0 l -1.764,-2.468 -2.043,-3.059 -12.824,-20.61 c -12.387,10.303 -21.019,24.977 -23.535,41.664 v 0 l 24.014,0.669 c 1.146,-5.063 3.184,-9.789 5.939,-14.011 v 0 c -0.041,0.064 -0.088,0.127 -0.129,0.191 v 0 l -9.244,-12.654 c 0,0 -5.951,8.028 -8.588,15.271 v 0 l 5.414,0.78 2.668,-6.119 3.731,2.098 -3.722,7.902 -13.124,-1.123 c 2.691,-9.352 7.508,-17.798 13.91,-24.768 v 0 l 11.342,15.269 2.26,3.004 c -4.923,6.584 -7.838,14.741 -7.838,23.576 v 0 c 0,2.134 0.19,4.222 0.519,6.264 v 0 l 3.665,-0.092 c 0.556,-1.602 2.06,-2.759 3.851,-2.759 v 0 c 2.259,0 4.091,1.832 4.091,4.092 v 0 c 0,2.259 -1.832,4.09 -4.091,4.09 v 0 c -1.367,0 -2.568,-0.676 -3.311,-1.704 v 0 l -3.434,0.126 -3.792,0.104 -24.056,0.523 c 2.636,16.699 11.4,31.351 23.915,41.577 v 0 l 13.065,-20.215 c 0,0 -5.995,-5.158 -9.425,-12.367 v 0 l -15.559,1.647 c 5.011,10.7 8.953,15.017 8.953,15.017 v 0 l 3.272,-4.524 c -2.214,-2.311 -3.369,-5.294 -3.369,-5.294 v 0 l 3.176,-1.925 c 0.386,1.058 5.006,7.411 5.006,7.411 v 0 l -7.857,10.507 c -6.438,-6.886 -11.325,-15.238 -14.106,-24.511 v 0 l 18.825,-2.009 4.333,0.633 c 4.262,9.15 11.934,16.398 21.399,20.145 v 0 l 1.86,-3.467 c -0.315,-0.58 -0.509,-1.233 -0.509,-1.938 v 0 c 0,-2.26 1.831,-4.092 4.09,-4.092 v 0 c 2.26,0 4.092,1.832 4.092,4.092 v 0 c 0,2.259 -1.832,4.091 -4.092,4.091 v 0 c -0.075,0 -0.144,-0.018 -0.218,-0.023 v 0 z m -28.463,16.499 c 3.601,2.622 7.473,4.89 11.564,6.763 v 0 l 2.513,-4.684 c -5.942,-2.699 -9.537,-5.263 -11.209,-6.607 v 0 z m 64.555,1.549 2.819,5.183 c 4.234,-1.943 8.234,-4.303 11.94,-7.047 v 0 l -3.15,-5.003 c -5.435,4.067 -9.573,6.041 -11.609,6.867 m -59.696,-9.222 c 4.869,3.643 8.897,5.66 10.93,6.56 v 0 l 2.666,-4.971 c -5.337,-2.413 -8.809,-4.726 -10.698,-6.163 v 0 z m 55.331,1.195 2.588,4.758 c 6.011,-2.688 9.881,-5.443 11.453,-6.667 v 0 L 380.777,335 c -4.914,3.7 -8.792,5.702 -11.035,6.683 m -50.429,-8.933 c 4.68,3.416 8.506,5.303 10.406,6.136 v 0 l 2.737,-5.102 c -3.642,-1.498 -7.031,-3.471 -10.096,-5.847 v 0 z m 46.189,1.133 2.452,4.511 c 5.822,-2.686 9.502,-5.37 10.888,-6.467 v 0 l -2.682,-4.26 c -3.215,2.544 -6.797,4.649 -10.658,6.216 m -83.686,-40.185 c 0,2.333 0.12,4.637 0.351,6.909 v 0 l 5.327,-0.135 c -0.789,-6.513 -0.464,-10.941 -0.183,-13.074 v 0 l -5.184,-0.097 c -0.198,2.107 -0.311,4.238 -0.311,6.397 m 9.308,6.682 5.653,-0.143 c -0.756,-5.982 -0.582,-10.264 -0.33,-12.669 v 0 l -5.414,-0.101 c -0.601,6.211 -0.198,10.774 0.091,12.913 m 9.286,-0.235 5.593,-0.141 c -0.302,-2.042 -0.477,-4.124 -0.477,-6.249 v 0 c 0,-2.041 0.149,-4.045 0.424,-6.01 v 0 l -5.76,-0.107 c -0.525,6.207 -0.054,10.657 0.22,12.507 m 109.774,-13.362 c 0.76,6.406 0.437,10.761 0.158,12.873 v 0 l 5.533,0.102 c 0.178,-1.998 0.284,-4.016 0.284,-6.06 v 0 c 0,-2.376 -0.127,-4.722 -0.366,-7.035 v 0 z m -9.288,0.197 c 0.734,5.899 0.561,10.124 0.311,12.507 v 0 l 5.415,0.1 c 0.581,-6.033 0.218,-10.514 -0.069,-12.726 v 0 z m -8.78,0.187 c 0.333,2.15 0.526,4.346 0.526,6.588 v 0 c 0,1.887 -0.121,3.744 -0.357,5.567 v 0 l 5.178,0.096 c 0.511,-6.035 0.078,-10.421 -0.199,-12.36 v 0 z m -73.11,-32.138 3.017,4.796 c 3.259,-2.576 6.899,-4.693 10.82,-6.264 v 0 l -2.903,-5.206 c -5.95,2.821 -9.649,5.623 -10.934,6.674 m 46.119,-1.53 c 3.74,1.475 7.223,3.447 10.371,5.84 v 0 l 2.909,-4.607 c -4.873,-3.547 -8.831,-5.447 -10.645,-6.223 v 0 z m -51.063,-6.328 3.007,4.78 c 4.914,-3.794 8.803,-5.856 11.048,-6.867 v 0 l -2.637,-4.728 c -6.032,2.773 -9.884,5.591 -11.418,6.815 m 55.39,-1.863 c 5.478,2.444 9.033,4.802 10.953,6.258 v 0 l 2.892,-4.578 c -5.101,-3.806 -9.28,-5.834 -11.212,-6.666 v 0 z m -60.235,-5.837 2.911,4.627 c 5.393,-4.127 9.512,-6.146 11.539,-6.993 v 0 l -2.578,-4.621 c -4.207,1.927 -8.184,4.269 -11.872,6.987 m 64.559,-2.35 c 6.114,2.737 9.809,5.357 11.509,6.72 v 0 l 2.98,-4.72 c -3.705,-2.681 -7.692,-4.991 -11.911,-6.879 v 0 z"
               style="fill:url(#linearGradient268);stroke:none"
               id="path270" />
          </g>
        </g>
      </g>
    </g>
    <g
       id="g272">
      <g
         id="g274"
         clip-path="url(#clipPath278)">
        <g
           id="g280">
          <g
             id="g282">
            <path
               d="m 308.548,309.604 3.8,-0.537 c 0.168,0.395 0.353,0.781 0.533,1.17 v 0 z"
               style="fill:url(#linearGradient288);stroke:none"
               id="path290" />
          </g>
        </g>
      </g>
    </g>
    <g
       id="g292">
      <g
         id="g294"
         clip-path="url(#clipPath298)">
        <g
           id="g300">
          <g
             id="g302">
            <path
               d="m 323.209,293.368 c 0,-1.007 0.812,-1.824 1.814,-1.824 v 0 c 1.003,0 1.815,0.817 1.815,1.824 v 0 c 0,1.006 -0.812,1.822 -1.815,1.822 v 0 c -1.002,0 -1.814,-0.816 -1.814,-1.822"
               style="fill:url(#linearGradient308);stroke:none"
               id="path310" />
          </g>
        </g>
      </g>
    </g>
    <g
       id="g312">
      <g
         id="g314"
         clip-path="url(#clipPath318)">
        <g
           id="g320">
          <g
             id="g322">
            <path
               d="m 358.378,314.449 c 0,-1.037 0.825,-1.877 1.842,-1.877 v 0 c 1.017,0 1.84,0.84 1.84,1.877 v 0 c 0,1.036 -0.823,1.877 -1.84,1.877 v 0 c -1.017,0 -1.842,-0.841 -1.842,-1.877"
               style="fill:url(#linearGradient328);stroke:none"
               id="path330" />
          </g>
        </g>
      </g>
    </g>
    <g
       id="g332">
      <g
         id="g334"
         clip-path="url(#clipPath338)">
        <g
           id="g340">
          <g
             id="g342">
            <path
               d="m 365.309,303.121 c 0,-1.037 0.824,-1.878 1.841,-1.878 v 0 c 1.017,0 1.841,0.841 1.841,1.878 v 0 c 0,1.037 -0.824,1.877 -1.841,1.877 v 0 c -1.017,0 -1.841,-0.84 -1.841,-1.877"
               style="fill:url(#linearGradient348);stroke:none"
               id="path350" />
          </g>
        </g>
      </g>
    </g>
    <g
       id="g352">
      <g
         id="g354"
         clip-path="url(#clipPath358)">
        <g
           id="g360">
          <g
             id="g362">
            <path
               d="m 367.771,284.864 c 0,-1.027 0.828,-1.858 1.85,-1.858 v 0 c 1.021,0 1.85,0.831 1.85,1.858 v 0 c 0,1.026 -0.829,1.859 -1.85,1.859 v 0 c -1.022,0 -1.85,-0.833 -1.85,-1.859"
               style="fill:url(#linearGradient368);stroke:none"
               id="path370" />
          </g>
        </g>
      </g>
    </g>
    <g
       id="g372">
      <g
         id="g374"
         clip-path="url(#clipPath378)">
        <g
           id="g380">
          <g
             id="g382">
            <path
               d="m 330.186,306.821 c 0,-1.007 0.812,-1.823 1.814,-1.823 v 0 c 1.003,0 1.815,0.816 1.815,1.823 v 0 c 0,1.007 -0.812,1.823 -1.815,1.823 v 0 c -1.002,0 -1.814,-0.816 -1.814,-1.823"
               style="fill:url(#linearGradient388);stroke:none"
               id="path390" />
          </g>
        </g>
      </g>
    </g>
    <g
       id="g392">
      <g
         id="g394"
         clip-path="url(#clipPath398)">
        <g
           id="g400">
          <g
             id="g402">
            <path
               d="m 338.26,297.566 c 0,-1.007 0.813,-1.823 1.816,-1.823 v 0 c 1.001,0 1.814,0.816 1.814,1.823 v 0 c 0,1.007 -0.813,1.823 -1.814,1.823 v 0 c -1.003,0 -1.816,-0.816 -1.816,-1.823"
               style="fill:url(#linearGradient408);stroke:none"
               id="path410" />
          </g>
        </g>
      </g>
    </g>
    <g
       id="g412">
      <g
         id="g414"
         clip-path="url(#clipPath418)">
        <g
           id="g420">
          <g
             id="g422">
            <path
               d="m 350.042,270.814 c 0,-1.026 0.828,-1.858 1.85,-1.858 v 0 c 1.022,0 1.85,0.832 1.85,1.858 v 0 c 0,1.026 -0.828,1.859 -1.85,1.859 v 0 c -1.022,0 -1.85,-0.833 -1.85,-1.859"
               style="fill:url(#linearGradient428);stroke:none"
               id="path430" />
          </g>
        </g>
      </g>
    </g>
    <g
       id="g432">
      <g
         id="g434"
         clip-path="url(#clipPath438)">
        <g
           id="g440">
          <g
             id="g442">
            <path
               d="m 348.972,285.174 c 0,-0.856 0.691,-1.549 1.543,-1.549 v 0 c 0.851,0 1.542,0.693 1.542,1.549 v 0 c 0,0.855 -0.691,1.549 -1.542,1.549 v 0 c -0.852,0 -1.543,-0.694 -1.543,-1.549"
               style="fill:url(#linearGradient448);stroke:none"
               id="path450" />
          </g>
        </g>
      </g>
    </g>
    <g
       id="g452">
      <g
         id="g454"
         clip-path="url(#clipPath458)">
        <g
           id="g460">
          <g
             id="g462">
            <path
               d="m 341.653,275.562 c 0,-1.01 0.814,-1.829 1.82,-1.829 v 0 c 1.006,0 1.82,0.819 1.82,1.829 v 0 c 0,1.01 -0.814,1.829 -1.82,1.829 v 0 c -1.006,0 -1.82,-0.819 -1.82,-1.829"
               style="fill:url(#linearGradient468);stroke:none"
               id="path470" />
          </g>
        </g>
      </g>
    </g>
    <g
       id="g472">
      <g
         id="g474"
         clip-path="url(#clipPath478)">
        <g
           id="g480">
          <g
             id="g482">
            <path
               d="m 343.651,317.204 c 0,-0.923 0.765,-1.672 1.708,-1.672 v 0 c 0.944,0 1.709,0.749 1.709,1.672 v 0 c 0,0.924 -0.765,1.673 -1.709,1.673 v 0 c -0.943,0 -1.708,-0.749 -1.708,-1.673"
               style="fill:url(#linearGradient488);stroke:none"
               id="path490" />
          </g>
        </g>
      </g>
    </g>
    <g
       id="g492">
      <g
         id="g494"
         clip-path="url(#clipPath498)">
        <g
           id="g500">
          <g
             id="g502">
            <path
               d="m 356.566,289.864 c 0,-1.257 1.014,-2.276 2.266,-2.276 v 0 c 1.251,0 2.265,1.019 2.265,2.276 v 0 c 0,1.257 -1.014,2.276 -2.265,2.276 v 0 c -1.252,0 -2.266,-1.019 -2.266,-2.276"
               style="fill:url(#linearGradient508);stroke:none"
               id="path510" />
          </g>
        </g>
      </g>
    </g>
    <g
       id="g512"
       inkscape:export-filename="g512.svg"
       inkscape:export-xdpi="155.91072"
       inkscape:export-ydpi="155.91072">
      <g
         id="g514"
         clip-path="url(#clipPath518)">
        <g
           id="g520">
          <g
             id="g522">
            <path
               d="m 336.16,319.249 c -0.366,0.334 -0.851,0.543 -1.39,0.543 v 0 c -1.129,0 -2.045,-0.9 -2.045,-2.01 v 0 c 0,-0.175 0.029,-0.341 0.072,-0.502 v 0 c -4.447,-3.036 -7.998,-7.296 -10.186,-12.296 v 0 c -0.047,0.003 -0.092,0.014 -0.14,0.014 v 0 c -1.171,0 -2.121,-0.954 -2.121,-2.13 v 0 c 0,-0.716 0.355,-1.347 0.896,-1.733 v 0 c -0.686,-2.473 -1.059,-5.076 -1.059,-7.767 v 0 c 0,-1.8 0.172,-3.557 0.484,-5.265 v 0 c -0.753,-0.399 -1.271,-1.184 -1.271,-2.097 v 0 c 0,-1.315 1.061,-2.381 2.37,-2.381 v 0 c 0.032,0 0.061,0.008 0.092,0.009 v 0 c 0.594,-1.669 1.34,-3.263 2.214,-4.774 v 0 c -0.368,-0.38 -0.597,-0.897 -0.597,-1.469 v 0 c 0,-1.165 0.94,-2.109 2.1,-2.109 v 0 c 0.288,0 0.563,0.059 0.813,0.165 v 0 c 2.067,-2.623 4.574,-4.877 7.414,-6.647 v 0 c -0.018,-0.105 -0.032,-0.212 -0.032,-0.323 v 0 c 0,-1.026 0.828,-1.858 1.85,-1.858 v 0 c 0.494,0 0.941,0.197 1.272,0.514 v 0 c 0.936,-0.433 1.898,-0.817 2.885,-1.149 v 0 c 0.041,-0.989 0.847,-1.78 1.842,-1.78 v 0 c 0.654,0 1.227,0.344 1.556,0.859 v 0 c 1.848,-0.376 3.759,-0.574 5.718,-0.574 v 0 c 1.885,0 3.727,0.188 5.511,0.538 v 0 c 0.358,-0.698 1.072,-1.179 1.906,-1.179 v 0 c 1.189,0 2.152,0.968 2.152,2.161 v 0 c 0,0.043 -0.01,0.083 -0.012,0.125 v 0 c 11.156,3.961 19.153,14.655 19.153,27.234 v 0 c 0,0.997 -0.07,1.976 -0.169,2.947 v 0 c 0.694,0.309 1.179,0.988 1.179,1.781 v 0 c 0,1.084 -0.9,1.961 -2.009,1.961 v 0 c -1.11,0 -2.009,-0.877 -2.009,-1.961 v 0 c 0,-0.948 0.689,-1.739 1.606,-1.921 v 0 c 0.091,-0.917 0.155,-1.841 0.155,-2.781 v 0 c 0,-12.044 -7.665,-22.283 -18.354,-26.063 v 0 c -0.18,0.233 -0.405,0.423 -0.663,0.566 v 0 c 0.926,3.322 0.712,7.806 0.543,9.864 v 0 c 0.546,0.323 0.961,0.835 1.161,1.45 v 0 l 6.95,-1.982 c -0.045,-0.16 -0.076,-0.324 -0.076,-0.498 v 0 c 0,-1.026 0.828,-1.858 1.85,-1.858 v 0 c 1.022,0 1.85,0.832 1.85,1.858 v 0 c 0,1.027 -0.828,1.859 -1.85,1.859 v 0 c -0.483,0 -0.918,-0.19 -1.248,-0.495 v 0 l -7.357,2.145 c -0.029,0.349 -0.122,0.676 -0.273,0.973 v 0 c 11.18,7.744 13.672,20.06 14.224,24.864 v 0 c 1.011,0.134 1.794,0.981 1.794,2.018 v 0 c 0,1.131 -0.926,2.046 -2.069,2.046 v 0 c -1.143,0 -2.07,-0.915 -2.07,-2.046 v 0 c 0,-0.867 0.549,-1.604 1.32,-1.902 v 0 c -0.523,-12.578 -10.253,-21.627 -13.609,-24.382 v 0 c -0.479,0.518 -1.158,0.847 -1.917,0.847 v 0 c -1.146,0 -2.11,-0.742 -2.466,-1.772 v 0 c -2.432,0.027 -10.744,0.051 -15.732,-0.711 v 0 c -0.019,0.06 -0.033,0.123 -0.055,0.181 v 0 c 3.441,2.062 12.233,7.885 20.002,17.548 v 0 c 0.328,-0.212 0.716,-0.338 1.134,-0.338 v 0 c 1.158,0 2.098,0.944 2.098,2.108 v 0 c 0,1.165 -0.94,2.108 -2.098,2.108 v 0 c -1.159,0 -2.099,-0.943 -2.099,-2.108 v 0 c 0,-0.37 0.104,-0.712 0.27,-1.014 v 0 c -2.544,-2.98 -10.558,-11.871 -19.934,-17.221 v 0 c -0.226,0.284 -0.482,0.541 -0.774,0.756 v 0 c 2.965,4.817 6.111,8.94 9.227,12.442 v 0 c 0.385,-0.268 0.851,-0.427 1.355,-0.427 v 0 c 1.315,0 2.382,1.071 2.382,2.392 v 0 c 0,0.556 -0.196,1.06 -0.512,1.466 v 0 c 8.188,8.228 15.595,12.231 18.084,13.441 v 0 c 0.42,-0.353 0.953,-0.573 1.543,-0.573 v 0 c 1.329,0 2.407,1.077 2.407,2.406 v 0 c 0,1.329 -1.078,2.406 -2.407,2.406 v 0 c -1.328,0 -2.407,-1.077 -2.407,-2.406 v 0 c 0,-0.4 0.107,-0.772 0.28,-1.104 v 0 c -7.544,-3.627 -13.718,-8.548 -18.546,-13.398 v 0 c -0.156,0.057 -0.319,0.097 -0.489,0.121 v 0 c -0.188,1.382 -0.817,4.322 -2.914,8.107 v 0 c 0.467,0.48 0.757,1.134 0.757,1.858 v 0 c 0,0.331 -0.068,0.644 -0.178,0.937 v 0 c 3.152,2.238 5.954,3.564 7.404,4.175 v 0 c 0.339,-0.408 0.843,-0.672 1.413,-0.672 v 0 c 1.023,0 1.853,0.835 1.853,1.865 v 0 c 0,1.03 -0.83,1.865 -1.853,1.865 v 0 c -1.012,0 -1.831,-0.817 -1.849,-1.83 v 0 c -3.006,-1.234 -5.588,-2.698 -7.802,-4.265 v 0 c -0.45,0.36 -1.015,0.584 -1.636,0.584 v 0 c -0.337,0 -0.658,-0.07 -0.956,-0.186 v 0 c -1.411,1.852 -3.167,3.812 -5.343,5.824 v 0 c 0.053,0.178 0.091,0.364 0.091,0.559 v 0 c 0,0.138 -0.014,0.272 -0.041,0.401 v 0 c 3.656,1.813 7.769,2.835 12.122,2.835 v 0 c 2.396,0 4.715,-0.325 6.931,-0.907 v 0 c 0.003,-1.067 0.858,-1.932 1.913,-1.932 v 0 c 1.057,0 1.913,0.867 1.913,1.937 v 0 c 0,1.07 -0.856,1.937 -1.913,1.937 v 0 c -0.625,0 -1.174,-0.307 -1.523,-0.775 v 0 c -2.338,0.622 -4.788,0.968 -7.321,0.968 v 0 c -4.576,0 -8.899,-1.082 -12.737,-2.997 m -0.056,-2.979 c 1.093,-1.038 3.027,-3.007 4.965,-5.566 v 0 c -0.425,-0.471 -0.692,-1.091 -0.692,-1.778 v 0 c 0,-0.431 0.112,-0.833 0.294,-1.193 v 0 c -5.107,-4.835 -7.347,-9.81 -8.07,-11.721 v 0 c -0.256,0.072 -0.521,0.123 -0.799,0.123 v 0 c -0.367,0 -0.714,-0.076 -1.038,-0.198 v 0 c -1.524,2.3 -3.576,4.469 -6.328,6.143 v 0 c 0.098,0.243 0.155,0.509 0.155,0.788 v 0 c 0,0.682 -0.325,1.283 -0.822,1.673 v 0 c 2.088,4.757 5.467,8.81 9.696,11.705 v 0 c 0.355,-0.291 0.807,-0.474 1.305,-0.474 v 0 c 0.512,0 0.975,0.192 1.334,0.498 m -0.963,-33.33 c -0.129,1.48 -0.526,4.43 -1.732,7.719 v 0 c 0.815,0.531 1.358,1.449 1.358,2.497 v 0 c 0,1.031 -0.521,1.939 -1.313,2.473 v 0 c 2.128,4.651 5.104,8.285 8.131,11.07 v 0 c 0.414,-0.272 0.907,-0.433 1.439,-0.433 v 0 c 0.304,0 0.591,0.062 0.862,0.157 v 0 c 1.306,-2.347 2.327,-4.934 2.713,-7.606 v 0 c -0.871,-0.355 -1.487,-1.211 -1.487,-2.215 v 0 c 0,-0.337 0.071,-0.659 0.197,-0.95 v 0 c -4.983,-5.588 -8.102,-10.637 -9.403,-12.914 v 0 c -0.245,0.091 -0.499,0.159 -0.765,0.202 m -11.362,18.263 c 1.106,-0.753 3.653,-2.708 5.914,-5.954 v 0 c -0.529,-0.539 -0.856,-1.277 -0.856,-2.093 v 0 c 0,-1.645 1.327,-2.978 2.965,-2.978 v 0 c 0.182,0 0.358,0.022 0.531,0.053 v 0 c 0.799,-2.118 1.333,-4.551 1.437,-7.298 v 0 c -0.791,-0.141 -1.497,-0.509 -2.062,-1.034 v 0 c -3.144,2.027 -6.255,3.522 -7.569,4.123 v 0 c -0.009,1.264 -1,2.286 -2.245,2.352 v 0 c -0.298,1.629 -0.461,3.304 -0.461,5.02 v 0 c 0,2.546 0.349,5.008 0.99,7.349 v 0 c 0.016,-10e-4 0.032,-0.005 0.048,-0.005 v 0 c 0.496,0 0.947,0.178 1.308,0.465 m -0.719,-17.191 c 0.295,0.194 0.54,0.452 0.724,0.753 v 0 c 3.007,-1.206 6.022,-3.299 7.049,-4.043 v 0 c -0.278,-0.557 -0.449,-1.176 -0.449,-1.841 v 0 c 0,-0.328 0.047,-0.644 0.12,-0.951 v 0 H 327.6 c -0.239,0.902 -1.049,1.569 -2.021,1.569 v 0 c -0.135,0 -0.266,-0.015 -0.393,-0.039 v 0 c -0.839,1.44 -1.554,2.961 -2.126,4.552 m 18.635,-16.098 c -0.984,3.076 -3.256,6.698 -4.218,8.156 v 0 c 0.688,0.737 1.117,1.721 1.117,2.811 v 0 c 0,0.07 -0.016,0.134 -0.019,0.202 v 0 c 1.257,0.325 4.919,0.768 15.371,0.925 v 0 c 0.002,-0.495 0.148,-0.954 0.388,-1.348 v 0 c -2.484,-1.555 -8.817,-5.848 -11.981,-10.891 v 0 c -0.203,0.088 -0.425,0.136 -0.658,0.145 m 1.752,-1.6 c -0.036,0.268 -0.125,0.515 -0.261,0.734 v 0 c 1.123,1.625 4.79,6.345 12.019,10.735 v 0 c 0.398,-0.244 0.86,-0.392 1.361,-0.392 v 0 c 0.054,0 0.106,0.012 0.16,0.016 v 0 c 0.338,-3.872 -0.045,-7.376 -0.332,-9.244 v 0 c -0.027,10e-4 -0.053,0.008 -0.08,0.008 v 0 c -1.093,0 -1.987,-0.823 -2.124,-1.884 v 0 c -1.713,-0.337 -3.482,-0.518 -5.293,-0.518 v 0 c -1.866,0 -3.688,0.189 -5.45,0.545 m -16.095,9.959 c 0.134,0.213 0.234,0.45 0.284,0.706 v 0 h 3.231 c 0.44,-0.845 1.147,-1.526 2.027,-1.898 v 0 c 0.088,-1.308 0.326,-3.172 0.947,-4.788 v 0 c -2.47,1.633 -4.661,3.654 -6.489,5.98 m 9.218,-0.928 c 2.012,-2.273 3.523,-6.168 4.071,-7.713 v 0 c -0.182,-0.114 -0.338,-0.261 -0.471,-0.431 v 0 c -0.929,0.313 -1.834,0.674 -2.716,1.081 v 0 c 0.007,0.065 0.02,0.129 0.02,0.195 v 0 c 0,1.027 -0.828,1.859 -1.85,1.859 v 0 c -0.185,0 -0.361,-0.035 -0.529,-0.087 v 0 c -0.448,1.011 -1.019,2.664 -1.058,4.554 v 0 c 0.15,-0.017 0.297,-0.046 0.453,-0.046 v 0 c 0.763,0 1.468,0.224 2.08,0.588"
               style="fill:url(#linearGradient528);stroke:none"
               id="path530" />
          </g>
        </g>
      </g>
    </g>
  </g>
</svg>
